<?xml version="1.0" encoding="UTF-8"?>
<svg xmlns="http://www.w3.org/2000/svg" width="1696" height="3584" viewBox="0 0 1696 3584">
  <title>Gamjabot epic costume QA</title>
  <defs>
    <pattern id="checker" width="16" height="16" patternUnits="userSpaceOnUse">
      <rect width="16" height="16" fill="#f1f1f1" />
      <rect width="8" height="8" fill="#d8d8d8" />
      <rect x="8" y="8" width="8" height="8" fill="#d8d8d8" />
    </pattern>
    <style>
      text { font-family: "Segoe UI", sans-serif; fill: #f4f4f5; }
      .section-label { font-size: 10px; fill: #aeb2c0; letter-spacing: 1px; }
      .id { font: 700 15px Consolas, monospace; fill: #7fd7ff; }
      .name { font-size: 17px; font-weight: 700; }
      .meta { font: 12px Consolas, monospace; fill: #ffcf53; }
      .bounds { font: 11px Consolas, monospace; fill: #aeb2c0; }
      .clear { font: 11px Consolas, monospace; fill: #7ee2a8; }
      .warning { font: 11px Consolas, monospace; fill: #ff7f8c; }
    </style>
  </defs>
  <rect width="100%" height="100%" fill="#17181c" />

    <g class="costume-cell" data-id="epic_001" data-qa-state="accepted">
      <rect x="4" y="4" width="416" height="440" rx="8" fill="#222329" stroke="#5b5d67" />
      <text x="16" y="25" class="section-label">ISOLATED · 4X</text>
      <rect x="12" y="34" width="256" height="256" fill="url(#checker)" stroke="#777" />
      <image href="../../../epic/epic_001.png" x="12" y="34" width="256" height="256" />
      <text x="300" y="25" class="section-label">WORN · 96PX</text>
      <rect x="284" y="48" width="128" height="128" fill="url(#checker)" stroke="#777" />
      <svg x="284" y="48" width="128" height="128" viewBox="0 0 128 128" overflow="hidden">
        <svg x="16" y="24" width="96" height="104" viewBox="0 0 96 104" overflow="hidden">
          <image href="../../../../images/characters/gamjabot/references/base-spritesheet-extended.png" x="0" y="0" width="768" height="1144" />
        </svg>
        <image href="../../../epic/epic_001.png" x="27" y="-13" width="74" height="74" />
      </svg>
      <text x="16" y="316" class="id">epic_001</text>
      <text x="16" y="340" class="name"><title>기억제본학파 반전책등관</title>기억제본학파 반전책등관</text>
      <text x="16" y="362" class="meta">EPIC · head · accepted</text>
      <text x="16" y="380" class="meta">x 11 · y -37 · size 74</text>
      <text x="16" y="398" class="bounds">source L16 T45 R239 B210</text>
      <text x="16" y="416" class="bounds">worn L16 T-24 R80 B24</text>
      <text x="16" y="434" class="clear">warnings none</text>
    </g>
    <g class="costume-cell" data-id="epic_002" data-qa-state="accepted">
      <rect x="428" y="4" width="416" height="440" rx="8" fill="#222329" stroke="#5b5d67" />
      <text x="440" y="25" class="section-label">ISOLATED · 4X</text>
      <rect x="436" y="34" width="256" height="256" fill="url(#checker)" stroke="#777" />
      <image href="../../../epic/epic_002.png" x="436" y="34" width="256" height="256" />
      <text x="724" y="25" class="section-label">WORN · 96PX</text>
      <rect x="708" y="48" width="128" height="128" fill="url(#checker)" stroke="#777" />
      <svg x="708" y="48" width="128" height="128" viewBox="0 0 128 128" overflow="hidden">
        <svg x="16" y="24" width="96" height="104" viewBox="0 0 96 104" overflow="hidden">
          <image href="../../../../images/characters/gamjabot/references/base-spritesheet-extended.png" x="0" y="0" width="768" height="1144" />
        </svg>
        <image href="../../../epic/epic_002.png" x="25" y="-15" width="78" height="78" />
      </svg>
      <text x="440" y="316" class="id">epic_002</text>
      <text x="440" y="340" class="name"><title>유리연성학파 연화쐐기관</title>유리연성학파 연화쐐기관</text>
      <text x="440" y="362" class="meta">EPIC · head · accepted</text>
      <text x="440" y="380" class="meta">x 9 · y -39 · size 78</text>
      <text x="440" y="398" class="bounds">source L16 T50 R239 B205</text>
      <text x="440" y="416" class="bounds">worn L14 T-24 R82 B24</text>
      <text x="440" y="434" class="clear">warnings none</text>
    </g>
    <g class="costume-cell" data-id="epic_003" data-qa-state="accepted">
      <rect x="852" y="4" width="416" height="440" rx="8" fill="#222329" stroke="#5b5d67" />
      <text x="864" y="25" class="section-label">ISOLATED · 4X</text>
      <rect x="860" y="34" width="256" height="256" fill="url(#checker)" stroke="#777" />
      <image href="../../../epic/epic_003.png" x="860" y="34" width="256" height="256" />
      <text x="1148" y="25" class="section-label">WORN · 96PX</text>
      <rect x="1132" y="48" width="128" height="128" fill="url(#checker)" stroke="#777" />
      <svg x="1132" y="48" width="128" height="128" viewBox="0 0 128 128" overflow="hidden">
        <svg x="16" y="24" width="96" height="104" viewBox="0 0 96 104" overflow="hidden">
          <image href="../../../../images/characters/gamjabot/references/base-spritesheet-extended.png" x="0" y="0" width="768" height="1144" />
        </svg>
        <image href="../../../epic/epic_003.png" x="37" y="-3" width="54" height="54" />
      </svg>
      <text x="864" y="316" class="id">epic_003</text>
      <text x="864" y="340" class="name"><title>공간기하학파 접면칠각관</title>공간기하학파 접면칠각관</text>
      <text x="864" y="362" class="meta">EPIC · head · accepted</text>
      <text x="864" y="380" class="meta">x 21 · y -27 · size 54</text>
      <text x="864" y="398" class="bounds">source L23 T16 R231 B239</text>
      <text x="864" y="416" class="bounds">worn L26 T-24 R70 B24</text>
      <text x="864" y="434" class="clear">warnings none</text>
    </g>
    <g class="costume-cell" data-id="epic_004" data-qa-state="accepted">
      <rect x="1276" y="4" width="416" height="440" rx="8" fill="#222329" stroke="#5b5d67" />
      <text x="1288" y="25" class="section-label">ISOLATED · 4X</text>
      <rect x="1284" y="34" width="256" height="256" fill="url(#checker)" stroke="#777" />
      <image href="../../../epic/epic_004.png" x="1284" y="34" width="256" height="256" />
      <text x="1572" y="25" class="section-label">WORN · 96PX</text>
      <rect x="1556" y="48" width="128" height="128" fill="url(#checker)" stroke="#777" />
      <svg x="1556" y="48" width="128" height="128" viewBox="0 0 128 128" overflow="hidden">
        <svg x="16" y="24" width="96" height="104" viewBox="0 0 96 104" overflow="hidden">
          <image href="../../../../images/characters/gamjabot/references/base-spritesheet-extended.png" x="0" y="0" width="768" height="1144" />
        </svg>
        <image href="../../../epic/epic_004.png" x="22" y="-18" width="84" height="84" />
      </svg>
      <text x="1288" y="316" class="id">epic_004</text>
      <text x="1288" y="340" class="name"><title>무음주문학파 정지파관</title>무음주문학파 정지파관</text>
      <text x="1288" y="362" class="meta">EPIC · head · accepted</text>
      <text x="1288" y="380" class="meta">x 6 · y -42 · size 84</text>
      <text x="1288" y="398" class="bounds">source L16 T55 R239 B199</text>
      <text x="1288" y="416" class="bounds">worn L11 T-24 R85 B24</text>
      <text x="1288" y="434" class="clear">warnings none</text>
    </g>
    <g class="costume-cell" data-id="epic_005" data-qa-state="accepted">
      <rect x="4" y="452" width="416" height="440" rx="8" fill="#222329" stroke="#5b5d67" />
      <text x="16" y="473" class="section-label">ISOLATED · 4X</text>
      <rect x="12" y="482" width="256" height="256" fill="url(#checker)" stroke="#777" />
      <image href="../../../epic/epic_005.png" x="12" y="482" width="256" height="256" />
      <text x="300" y="473" class="section-label">WORN · 96PX</text>
      <rect x="284" y="496" width="128" height="128" fill="url(#checker)" stroke="#777" />
      <svg x="284" y="496" width="128" height="128" viewBox="0 0 128 128" overflow="hidden">
        <svg x="16" y="24" width="96" height="104" viewBox="0 0 96 104" overflow="hidden">
          <image href="../../../../images/characters/gamjabot/references/base-spritesheet-extended.png" x="0" y="0" width="768" height="1144" />
        </svg>
        <image href="../../../epic/epic_005.png" x="13" y="10" width="102" height="102" />
      </svg>
      <text x="16" y="764" class="id">epic_005</text>
      <text x="16" y="788" class="name"><title>변환기호학파 상변가리개</title>변환기호학파 상변가리개</text>
      <text x="16" y="810" class="meta">EPIC · face · accepted</text>
      <text x="16" y="828" class="meta">x -3 · y -14 · size 102</text>
      <text x="16" y="846" class="bounds">source L16 T88 R239 B167</text>
      <text x="16" y="864" class="bounds">worn L3 T21 R93 B53</text>
      <text x="16" y="882" class="clear">warnings none</text>
    </g>
    <g class="costume-cell" data-id="epic_006" data-qa-state="accepted">
      <rect x="428" y="452" width="416" height="440" rx="8" fill="#222329" stroke="#5b5d67" />
      <text x="440" y="473" class="section-label">ISOLATED · 4X</text>
      <rect x="436" y="482" width="256" height="256" fill="url(#checker)" stroke="#777" />
      <image href="../../../epic/epic_006.png" x="436" y="482" width="256" height="256" />
      <text x="724" y="473" class="section-label">WORN · 96PX</text>
      <rect x="708" y="496" width="128" height="128" fill="url(#checker)" stroke="#777" />
      <svg x="708" y="496" width="128" height="128" viewBox="0 0 128 128" overflow="hidden">
        <svg x="16" y="24" width="96" height="104" viewBox="0 0 96 104" overflow="hidden">
          <image href="../../../../images/characters/gamjabot/references/base-spritesheet-extended.png" x="0" y="0" width="768" height="1144" />
        </svg>
        <image href="../../../epic/epic_006.png" x="29" y="71" width="70" height="70" />
      </svg>
      <text x="440" y="764" class="id">epic_006</text>
      <text x="440" y="788" class="name"><title>공명술학파 진동턱칼라</title>공명술학파 진동턱칼라</text>
      <text x="440" y="810" class="meta">EPIC · neck · accepted</text>
      <text x="440" y="828" class="meta">x 13 · y 47 · size 70</text>
      <text x="440" y="846" class="bounds">source L16 T48 R239 B206</text>
      <text x="440" y="864" class="bounds">worn L17 T60 R79 B104</text>
      <text x="440" y="882" class="clear">warnings none</text>
    </g>
    <g class="costume-cell" data-id="epic_007" data-qa-state="accepted">
      <rect x="852" y="452" width="416" height="440" rx="8" fill="#222329" stroke="#5b5d67" />
      <text x="864" y="473" class="section-label">ISOLATED · 4X</text>
      <rect x="860" y="482" width="256" height="256" fill="url(#checker)" stroke="#777" />
      <image href="../../../epic/epic_007.png" x="860" y="482" width="256" height="256" />
      <text x="1148" y="473" class="section-label">WORN · 96PX</text>
      <rect x="1132" y="496" width="128" height="128" fill="url(#checker)" stroke="#777" />
      <svg x="1132" y="496" width="128" height="128" viewBox="0 0 128 128" overflow="hidden">
        <svg x="16" y="24" width="96" height="104" viewBox="0 0 96 104" overflow="hidden">
          <image href="../../../../images/characters/gamjabot/references/base-spritesheet-extended.png" x="0" y="0" width="768" height="1144" />
        </svg>
        <image href="../../../epic/epic_007.png" x="35" y="72" width="59" height="59" />
      </svg>
      <text x="864" y="764" class="id">epic_007</text>
      <text x="864" y="788" class="name"><title>보호결계학파 문턱결계갑</title>보호결계학파 문턱결계갑</text>
      <text x="864" y="810" class="meta">EPIC · body · accepted</text>
      <text x="864" y="828" class="meta">x 19 · y 48 · size 59</text>
      <text x="864" y="846" class="bounds">source L16 T16 R239 B238</text>
      <text x="864" y="864" class="bounds">worn L23 T52 R74 B103</text>
      <text x="864" y="882" class="clear">warnings none</text>
    </g>
    <g class="costume-cell" data-id="epic_008" data-qa-state="accepted">
      <rect x="1276" y="452" width="416" height="440" rx="8" fill="#222329" stroke="#5b5d67" />
      <text x="1288" y="473" class="section-label">ISOLATED · 4X</text>
      <rect x="1284" y="482" width="256" height="256" fill="url(#checker)" stroke="#777" />
      <image href="../../../epic/epic_008.png" x="1284" y="482" width="256" height="256" />
      <text x="1572" y="473" class="section-label">WORN · 96PX</text>
      <rect x="1556" y="496" width="128" height="128" fill="url(#checker)" stroke="#777" />
      <svg x="1556" y="496" width="128" height="128" viewBox="0 0 128 128" overflow="hidden">
        <svg x="16" y="24" width="96" height="104" viewBox="0 0 96 104" overflow="hidden">
          <image href="../../../../images/characters/gamjabot/references/base-spritesheet-extended.png" x="0" y="0" width="768" height="1144" />
        </svg>
        <image href="../../../epic/epic_008.png" x="35" y="72" width="59" height="59" />
      </svg>
      <text x="1288" y="764" class="id">epic_008</text>
      <text x="1288" y="788" class="name"><title>확률직조학파 우연갈래외투</title>확률직조학파 우연갈래외투</text>
      <text x="1288" y="810" class="meta">EPIC · body · accepted</text>
      <text x="1288" y="828" class="meta">x 19 · y 48 · size 59</text>
      <text x="1288" y="846" class="bounds">source L17 T16 R238 B239</text>
      <text x="1288" y="864" class="bounds">worn L23 T52 R74 B103</text>
      <text x="1288" y="882" class="clear">warnings none</text>
    </g>
    <g class="costume-cell" data-id="epic_009" data-qa-state="accepted">
      <rect x="4" y="900" width="416" height="440" rx="8" fill="#222329" stroke="#5b5d67" />
      <text x="16" y="921" class="section-label">ISOLATED · 4X</text>
      <rect x="12" y="930" width="256" height="256" fill="url(#checker)" stroke="#777" />
      <image href="../../../epic/epic_009.png" x="12" y="930" width="256" height="256" />
      <text x="300" y="921" class="section-label">WORN · 96PX</text>
      <rect x="284" y="944" width="128" height="128" fill="url(#checker)" stroke="#777" />
      <svg x="284" y="944" width="128" height="128" viewBox="0 0 128 128" overflow="hidden">
        <svg x="16" y="24" width="96" height="104" viewBox="0 0 96 104" overflow="hidden">
          <image href="../../../../images/characters/gamjabot/references/base-spritesheet-extended.png" x="0" y="0" width="768" height="1144" />
        </svg>
        <image href="../../../epic/epic_009.png" x="25" y="-15" width="78" height="78" />
      </svg>
      <text x="16" y="1212" class="id">epic_009</text>
      <text x="16" y="1236" class="name"><title>수정맥 폐곡관</title>수정맥 폐곡관</text>
      <text x="16" y="1258" class="meta">EPIC · head · accepted</text>
      <text x="16" y="1276" class="meta">x 9 · y -39 · size 78</text>
      <text x="16" y="1294" class="bounds">source L16 T50 R239 B205</text>
      <text x="16" y="1312" class="bounds">worn L14 T-24 R82 B24</text>
      <text x="16" y="1330" class="clear">warnings none</text>
    </g>
    <g class="costume-cell" data-id="epic_010" data-qa-state="accepted">
      <rect x="428" y="900" width="416" height="440" rx="8" fill="#222329" stroke="#5b5d67" />
      <text x="440" y="921" class="section-label">ISOLATED · 4X</text>
      <rect x="436" y="930" width="256" height="256" fill="url(#checker)" stroke="#777" />
      <image href="../../../epic/epic_010.png" x="436" y="930" width="256" height="256" />
      <text x="724" y="921" class="section-label">WORN · 96PX</text>
      <rect x="708" y="944" width="128" height="128" fill="url(#checker)" stroke="#777" />
      <svg x="708" y="944" width="128" height="128" viewBox="0 0 128 128" overflow="hidden">
        <svg x="16" y="24" width="96" height="104" viewBox="0 0 96 104" overflow="hidden">
          <image href="../../../../images/characters/gamjabot/references/base-spritesheet-extended.png" x="0" y="0" width="768" height="1144" />
        </svg>
        <image href="../../../epic/epic_010.png" x="37" y="-3" width="54" height="54" />
      </svg>
      <text x="440" y="1212" class="id">epic_010</text>
      <text x="440" y="1236" class="name"><title>불꽃심 비틀관</title>불꽃심 비틀관</text>
      <text x="440" y="1258" class="meta">EPIC · head · accepted</text>
      <text x="440" y="1276" class="meta">x 21 · y -27 · size 54</text>
      <text x="440" y="1294" class="bounds">source L46 T16 R208 B239</text>
      <text x="440" y="1312" class="bounds">worn L31 T-24 R65 B24</text>
      <text x="440" y="1330" class="clear">warnings none</text>
    </g>
    <g class="costume-cell" data-id="epic_011" data-qa-state="accepted">
      <rect x="852" y="900" width="416" height="440" rx="8" fill="#222329" stroke="#5b5d67" />
      <text x="864" y="921" class="section-label">ISOLATED · 4X</text>
      <rect x="860" y="930" width="256" height="256" fill="url(#checker)" stroke="#777" />
      <image href="../../../epic/epic_011.png" x="860" y="930" width="256" height="256" />
      <text x="1148" y="921" class="section-label">WORN · 96PX</text>
      <rect x="1132" y="944" width="128" height="128" fill="url(#checker)" stroke="#777" />
      <svg x="1132" y="944" width="128" height="128" viewBox="0 0 128 128" overflow="hidden">
        <svg x="16" y="24" width="96" height="104" viewBox="0 0 96 104" overflow="hidden">
          <image href="../../../../images/characters/gamjabot/references/base-spritesheet-extended.png" x="0" y="0" width="768" height="1144" />
        </svg>
        <image href="../../../epic/epic_011.png" x="30" y="-10" width="69" height="69" />
      </svg>
      <text x="864" y="1212" class="id">epic_011</text>
      <text x="864" y="1236" class="name"><title>회오리띠 바람관</title>회오리띠 바람관</text>
      <text x="864" y="1258" class="meta">EPIC · head · accepted</text>
      <text x="864" y="1276" class="meta">x 14 · y -34 · size 69</text>
      <text x="864" y="1294" class="bounds">source L16 T38 R239 B215</text>
      <text x="864" y="1312" class="bounds">worn L18 T-24 R79 B24</text>
      <text x="864" y="1330" class="clear">warnings none</text>
    </g>
    <g class="costume-cell" data-id="epic_012" data-qa-state="accepted">
      <rect x="1276" y="900" width="416" height="440" rx="8" fill="#222329" stroke="#5b5d67" />
      <text x="1288" y="921" class="section-label">ISOLATED · 4X</text>
      <rect x="1284" y="930" width="256" height="256" fill="url(#checker)" stroke="#777" />
      <image href="../../../epic/epic_012.png" x="1284" y="930" width="256" height="256" />
      <text x="1572" y="921" class="section-label">WORN · 96PX</text>
      <rect x="1556" y="944" width="128" height="128" fill="url(#checker)" stroke="#777" />
      <svg x="1556" y="944" width="128" height="128" viewBox="0 0 128 128" overflow="hidden">
        <svg x="16" y="24" width="96" height="104" viewBox="0 0 96 104" overflow="hidden">
          <image href="../../../../images/characters/gamjabot/references/base-spritesheet-extended.png" x="0" y="0" width="768" height="1144" />
        </svg>
        <image href="../../../epic/epic_012.png" x="32" y="-8" width="65" height="65" />
      </svg>
      <text x="1288" y="1212" class="id">epic_012</text>
      <text x="1288" y="1236" class="name"><title>거석문 대지관</title>거석문 대지관</text>
      <text x="1288" y="1258" class="meta">EPIC · head · accepted</text>
      <text x="1288" y="1276" class="meta">x 16 · y -32 · size 65</text>
      <text x="1288" y="1294" class="bounds">source L16 T33 R239 B221</text>
      <text x="1288" y="1312" class="bounds">worn L20 T-24 R77 B24</text>
      <text x="1288" y="1330" class="clear">warnings none</text>
    </g>
    <g class="costume-cell" data-id="epic_013" data-qa-state="accepted">
      <rect x="4" y="1348" width="416" height="440" rx="8" fill="#222329" stroke="#5b5d67" />
      <text x="16" y="1369" class="section-label">ISOLATED · 4X</text>
      <rect x="12" y="1378" width="256" height="256" fill="url(#checker)" stroke="#777" />
      <image href="../../../epic/epic_013.png" x="12" y="1378" width="256" height="256" />
      <text x="300" y="1369" class="section-label">WORN · 96PX</text>
      <rect x="284" y="1392" width="128" height="128" fill="url(#checker)" stroke="#777" />
      <svg x="284" y="1392" width="128" height="128" viewBox="0 0 128 128" overflow="hidden">
        <svg x="16" y="24" width="96" height="104" viewBox="0 0 96 104" overflow="hidden">
          <image href="../../../../images/characters/gamjabot/references/base-spritesheet-extended.png" x="0" y="0" width="768" height="1144" />
        </svg>
        <image href="../../../epic/epic_013.png" x="32" y="29" width="64" height="64" />
      </svg>
      <text x="16" y="1660" class="id">epic_013</text>
      <text x="16" y="1684" class="name"><title>만조마루 물결가리개</title>만조마루 물결가리개</text>
      <text x="16" y="1706" class="meta">EPIC · face · accepted</text>
      <text x="16" y="1724" class="meta">x 16 · y 5 · size 64</text>
      <text x="16" y="1742" class="bounds">source L16 T48 R239 B206</text>
      <text x="16" y="1760" class="bounds">worn L20 T17 R76 B57</text>
      <text x="16" y="1778" class="clear">warnings none</text>
    </g>
    <g class="costume-cell" data-id="epic_014" data-qa-state="accepted">
      <rect x="428" y="1348" width="416" height="440" rx="8" fill="#222329" stroke="#5b5d67" />
      <text x="440" y="1369" class="section-label">ISOLATED · 4X</text>
      <rect x="436" y="1378" width="256" height="256" fill="url(#checker)" stroke="#777" />
      <image href="../../../epic/epic_014.png" x="436" y="1378" width="256" height="256" />
      <text x="724" y="1369" class="section-label">WORN · 96PX</text>
      <rect x="708" y="1392" width="128" height="128" fill="url(#checker)" stroke="#777" />
      <svg x="708" y="1392" width="128" height="128" viewBox="0 0 128 128" overflow="hidden">
        <svg x="16" y="24" width="96" height="104" viewBox="0 0 96 104" overflow="hidden">
          <image href="../../../../images/characters/gamjabot/references/base-spritesheet-extended.png" x="0" y="0" width="768" height="1144" />
        </svg>
        <image href="../../../epic/epic_014.png" x="40" y="37" width="49" height="49" />
      </svg>
      <text x="440" y="1660" class="id">epic_014</text>
      <text x="440" y="1684" class="name"><title>뇌광고리 번개테</title>뇌광고리 번개테</text>
      <text x="440" y="1706" class="meta">EPIC · face · accepted</text>
      <text x="440" y="1724" class="meta">x 24 · y 13 · size 49</text>
      <text x="440" y="1742" class="bounds">source L16 T24 R239 B230</text>
      <text x="440" y="1760" class="bounds">worn L27 T18 R70 B57</text>
      <text x="440" y="1778" class="clear">warnings none</text>
    </g>
    <g class="costume-cell" data-id="epic_015" data-qa-state="accepted">
      <rect x="852" y="1348" width="416" height="440" rx="8" fill="#222329" stroke="#5b5d67" />
      <text x="864" y="1369" class="section-label">ISOLATED · 4X</text>
      <rect x="860" y="1378" width="256" height="256" fill="url(#checker)" stroke="#777" />
      <image href="../../../epic/epic_015.png" x="860" y="1378" width="256" height="256" />
      <text x="1148" y="1369" class="section-label">WORN · 96PX</text>
      <rect x="1132" y="1392" width="128" height="128" fill="url(#checker)" stroke="#777" />
      <svg x="1132" y="1392" width="128" height="128" viewBox="0 0 128 128" overflow="hidden">
        <svg x="16" y="24" width="96" height="104" viewBox="0 0 96 104" overflow="hidden">
          <image href="../../../../images/characters/gamjabot/references/base-spritesheet-extended.png" x="0" y="0" width="768" height="1144" />
        </svg>
        <image href="../../../epic/epic_015.png" x="39" y="81" width="50" height="50" />
      </svg>
      <text x="864" y="1660" class="id">epic_015</text>
      <text x="864" y="1684" class="name"><title>서리별 결정칼라</title>서리별 결정칼라</text>
      <text x="864" y="1706" class="meta">EPIC · neck · accepted</text>
      <text x="864" y="1724" class="meta">x 23 · y 57 · size 50</text>
      <text x="864" y="1742" class="bounds">source L27 T16 R227 B239</text>
      <text x="864" y="1760" class="bounds">worn L28 T60 R68 B104</text>
      <text x="864" y="1778" class="clear">warnings none</text>
    </g>
    <g class="costume-cell" data-id="epic_016" data-qa-state="accepted">
      <rect x="1276" y="1348" width="416" height="440" rx="8" fill="#222329" stroke="#5b5d67" />
      <text x="1288" y="1369" class="section-label">ISOLATED · 4X</text>
      <rect x="1284" y="1378" width="256" height="256" fill="url(#checker)" stroke="#777" />
      <image href="../../../epic/epic_016.png" x="1284" y="1378" width="256" height="256" />
      <text x="1572" y="1369" class="section-label">WORN · 96PX</text>
      <rect x="1556" y="1392" width="128" height="128" fill="url(#checker)" stroke="#777" />
      <svg x="1556" y="1392" width="128" height="128" viewBox="0 0 128 128" overflow="hidden">
        <svg x="16" y="24" width="96" height="104" viewBox="0 0 96 104" overflow="hidden">
          <image href="../../../../images/characters/gamjabot/references/base-spritesheet-extended.png" x="0" y="0" width="768" height="1144" />
        </svg>
        <image href="../../../epic/epic_016.png" x="35" y="72" width="59" height="59" />
      </svg>
      <text x="1288" y="1660" class="id">epic_016</text>
      <text x="1288" y="1684" class="name"><title>생장나선 덩굴갑</title>생장나선 덩굴갑</text>
      <text x="1288" y="1706" class="meta">EPIC · body · accepted</text>
      <text x="1288" y="1724" class="meta">x 19 · y 48 · size 59</text>
      <text x="1288" y="1742" class="bounds">source L16 T16 R238 B239</text>
      <text x="1288" y="1760" class="bounds">worn L23 T52 R74 B103</text>
      <text x="1288" y="1778" class="clear">warnings none</text>
    </g>
    <g class="costume-cell" data-id="epic_017" data-qa-state="accepted">
      <rect x="4" y="1796" width="416" height="440" rx="8" fill="#222329" stroke="#5b5d67" />
      <text x="16" y="1817" class="section-label">ISOLATED · 4X</text>
      <rect x="12" y="1826" width="256" height="256" fill="url(#checker)" stroke="#777" />
      <image href="../../../epic/epic_017.png" x="12" y="1826" width="256" height="256" />
      <text x="300" y="1817" class="section-label">WORN · 96PX</text>
      <rect x="284" y="1840" width="128" height="128" fill="url(#checker)" stroke="#777" />
      <svg x="284" y="1840" width="128" height="128" viewBox="0 0 128 128" overflow="hidden">
        <svg x="16" y="24" width="96" height="104" viewBox="0 0 96 104" overflow="hidden">
          <image href="../../../../images/characters/gamjabot/references/base-spritesheet-extended.png" x="0" y="0" width="768" height="1144" />
        </svg>
        <image href="../../../epic/epic_017.png" x="37" y="-3" width="54" height="54" />
      </svg>
      <text x="16" y="2108" class="id">epic_017</text>
      <text x="16" y="2132" class="name"><title>여백수집회 빈모서리관</title>여백수집회 빈모서리관</text>
      <text x="16" y="2154" class="meta">EPIC · head · accepted</text>
      <text x="16" y="2172" class="meta">x 21 · y -27 · size 54</text>
      <text x="16" y="2190" class="bounds">source L34 T16 R221 B239</text>
      <text x="16" y="2208" class="bounds">worn L28 T-24 R68 B24</text>
      <text x="16" y="2226" class="clear">warnings none</text>
    </g>
    <g class="costume-cell" data-id="epic_018" data-qa-state="accepted">
      <rect x="428" y="1796" width="416" height="440" rx="8" fill="#222329" stroke="#5b5d67" />
      <text x="440" y="1817" class="section-label">ISOLATED · 4X</text>
      <rect x="436" y="1826" width="256" height="256" fill="url(#checker)" stroke="#777" />
      <image href="../../../epic/epic_018.png" x="436" y="1826" width="256" height="256" />
      <text x="724" y="1817" class="section-label">WORN · 96PX</text>
      <rect x="708" y="1840" width="128" height="128" fill="url(#checker)" stroke="#777" />
      <svg x="708" y="1840" width="128" height="128" viewBox="0 0 128 128" overflow="hidden">
        <svg x="16" y="24" width="96" height="104" viewBox="0 0 96 104" overflow="hidden">
          <image href="../../../../images/characters/gamjabot/references/base-spritesheet-extended.png" x="0" y="0" width="768" height="1144" />
        </svg>
        <image href="../../../epic/epic_018.png" x="21" y="-19" width="87" height="87" />
      </svg>
      <text x="440" y="2108" class="id">epic_018</text>
      <text x="440" y="2132" class="name"><title>반대편창문실 어긋창관</title>반대편창문실 어긋창관</text>
      <text x="440" y="2154" class="meta">EPIC · head · accepted</text>
      <text x="440" y="2172" class="meta">x 5 · y -43 · size 87</text>
      <text x="440" y="2190" class="bounds">source L16 T57 R239 B197</text>
      <text x="440" y="2208" class="bounds">worn L10 T-24 R87 B24</text>
      <text x="440" y="2226" class="clear">warnings none</text>
    </g>
    <g class="costume-cell" data-id="epic_019" data-qa-state="accepted">
      <rect x="852" y="1796" width="416" height="440" rx="8" fill="#222329" stroke="#5b5d67" />
      <text x="864" y="1817" class="section-label">ISOLATED · 4X</text>
      <rect x="860" y="1826" width="256" height="256" fill="url(#checker)" stroke="#777" />
      <image href="../../../epic/epic_019.png" x="860" y="1826" width="256" height="256" />
      <text x="1148" y="1817" class="section-label">WORN · 96PX</text>
      <rect x="1132" y="1840" width="128" height="128" fill="url(#checker)" stroke="#777" />
      <svg x="1132" y="1840" width="128" height="128" viewBox="0 0 128 128" overflow="hidden">
        <svg x="16" y="24" width="96" height="104" viewBox="0 0 96 104" overflow="hidden">
          <image href="../../../../images/characters/gamjabot/references/base-spritesheet-extended.png" x="0" y="0" width="768" height="1144" />
        </svg>
        <image href="../../../epic/epic_019.png" x="18" y="-22" width="93" height="93" />
      </svg>
      <text x="864" y="2108" class="id">epic_019</text>
      <text x="864" y="2132" class="name"><title>늦은종착기록소 되돌이관</title>늦은종착기록소 되돌이관</text>
      <text x="864" y="2154" class="meta">EPIC · head · accepted</text>
      <text x="864" y="2172" class="meta">x 2 · y -46 · size 93</text>
      <text x="864" y="2190" class="bounds">source L16 T62 R239 B192</text>
      <text x="864" y="2208" class="bounds">worn L8 T-23 R89 B24</text>
      <text x="864" y="2226" class="clear">warnings none</text>
    </g>
    <g class="costume-cell" data-id="epic_020" data-qa-state="accepted">
      <rect x="1276" y="1796" width="416" height="440" rx="8" fill="#222329" stroke="#5b5d67" />
      <text x="1288" y="1817" class="section-label">ISOLATED · 4X</text>
      <rect x="1284" y="1826" width="256" height="256" fill="url(#checker)" stroke="#777" />
      <image href="../../../epic/epic_020.png" x="1284" y="1826" width="256" height="256" />
      <text x="1572" y="1817" class="section-label">WORN · 96PX</text>
      <rect x="1556" y="1840" width="128" height="128" fill="url(#checker)" stroke="#777" />
      <svg x="1556" y="1840" width="128" height="128" viewBox="0 0 128 128" overflow="hidden">
        <svg x="16" y="24" width="96" height="104" viewBox="0 0 96 104" overflow="hidden">
          <image href="../../../../images/characters/gamjabot/references/base-spritesheet-extended.png" x="0" y="0" width="768" height="1144" />
        </svg>
        <image href="../../../epic/epic_020.png" x="22" y="-18" width="85" height="85" />
      </svg>
      <text x="1288" y="2108" class="id">epic_020</text>
      <text x="1288" y="2132" class="name"><title>푸른침묵연구회 고요홈관</title>푸른침묵연구회 고요홈관</text>
      <text x="1288" y="2154" class="meta">EPIC · head · accepted</text>
      <text x="1288" y="2172" class="meta">x 6 · y -42 · size 85</text>
      <text x="1288" y="2190" class="bounds">source L16 T55 R239 B198</text>
      <text x="1288" y="2208" class="bounds">worn L11 T-24 R86 B24</text>
      <text x="1288" y="2226" class="clear">warnings none</text>
    </g>
    <g class="costume-cell" data-id="epic_021" data-qa-state="accepted">
      <rect x="4" y="2244" width="416" height="440" rx="8" fill="#222329" stroke="#5b5d67" />
      <text x="16" y="2265" class="section-label">ISOLATED · 4X</text>
      <rect x="12" y="2274" width="256" height="256" fill="url(#checker)" stroke="#777" />
      <image href="../../../epic/epic_021.png" x="12" y="2274" width="256" height="256" />
      <text x="300" y="2265" class="section-label">WORN · 96PX</text>
      <rect x="284" y="2288" width="128" height="128" fill="url(#checker)" stroke="#777" />
      <svg x="284" y="2288" width="128" height="128" viewBox="0 0 128 128" overflow="hidden">
        <svg x="16" y="24" width="96" height="104" viewBox="0 0 96 104" overflow="hidden">
          <image href="../../../../images/characters/gamjabot/references/base-spritesheet-extended.png" x="0" y="0" width="768" height="1144" />
        </svg>
        <image href="../../../epic/epic_021.png" x="33" y="30" width="62" height="62" />
      </svg>
      <text x="16" y="2556" class="id">epic_021</text>
      <text x="16" y="2580" class="name"><title>첫그늘측량소 그늘부채테</title>첫그늘측량소 그늘부채테</text>
      <text x="16" y="2602" class="meta">EPIC · face · accepted</text>
      <text x="16" y="2620" class="meta">x 17 · y 6 · size 62</text>
      <text x="16" y="2638" class="bounds">source L16 T45 R239 B209</text>
      <text x="16" y="2656" class="bounds">worn L21 T17 R75 B57</text>
      <text x="16" y="2674" class="clear">warnings none</text>
    </g>
    <g class="costume-cell" data-id="epic_022" data-qa-state="accepted">
      <rect x="428" y="2244" width="416" height="440" rx="8" fill="#222329" stroke="#5b5d67" />
      <text x="440" y="2265" class="section-label">ISOLATED · 4X</text>
      <rect x="436" y="2274" width="256" height="256" fill="url(#checker)" stroke="#777" />
      <image href="../../../epic/epic_022.png" x="436" y="2274" width="256" height="256" />
      <text x="724" y="2265" class="section-label">WORN · 96PX</text>
      <rect x="708" y="2288" width="128" height="128" fill="url(#checker)" stroke="#777" />
      <svg x="708" y="2288" width="128" height="128" viewBox="0 0 128 128" overflow="hidden">
        <svg x="16" y="24" width="96" height="104" viewBox="0 0 96 104" overflow="hidden">
          <image href="../../../../images/characters/gamjabot/references/base-spritesheet-extended.png" x="0" y="0" width="768" height="1144" />
        </svg>
        <image href="../../../epic/epic_022.png" x="33" y="75" width="62" height="62" />
      </svg>
      <text x="440" y="2556" class="id">epic_022</text>
      <text x="440" y="2580" class="name"><title>잊은계절안내실 계절쐐기칼라</title>잊은계절안내실 계절쐐기칼라</text>
      <text x="440" y="2602" class="meta">EPIC · neck · accepted</text>
      <text x="440" y="2620" class="meta">x 17 · y 51 · size 62</text>
      <text x="440" y="2638" class="bounds">source L16 T38 R239 B217</text>
      <text x="440" y="2656" class="bounds">worn L21 T60 R75 B104</text>
      <text x="440" y="2674" class="clear">warnings none</text>
    </g>
    <g class="costume-cell" data-id="epic_023" data-qa-state="accepted">
      <rect x="852" y="2244" width="416" height="440" rx="8" fill="#222329" stroke="#5b5d67" />
      <text x="864" y="2265" class="section-label">ISOLATED · 4X</text>
      <rect x="860" y="2274" width="256" height="256" fill="url(#checker)" stroke="#777" />
      <image href="../../../epic/epic_023.png" x="860" y="2274" width="256" height="256" />
      <text x="1148" y="2265" class="section-label">WORN · 96PX</text>
      <rect x="1132" y="2288" width="128" height="128" fill="url(#checker)" stroke="#777" />
      <svg x="1132" y="2288" width="128" height="128" viewBox="0 0 128 128" overflow="hidden">
        <svg x="16" y="24" width="96" height="104" viewBox="0 0 96 104" overflow="hidden">
          <image href="../../../../images/characters/gamjabot/references/base-spritesheet-extended.png" x="0" y="0" width="768" height="1144" />
        </svg>
        <image href="../../../epic/epic_023.png" x="35" y="72" width="59" height="59" />
      </svg>
      <text x="864" y="2556" class="id">epic_023</text>
      <text x="864" y="2580" class="name"><title>무명도형보관소 빈지붕갑</title>무명도형보관소 빈지붕갑</text>
      <text x="864" y="2602" class="meta">EPIC · body · accepted</text>
      <text x="864" y="2620" class="meta">x 19 · y 48 · size 59</text>
      <text x="864" y="2638" class="bounds">source L42 T16 R213 B239</text>
      <text x="864" y="2656" class="bounds">worn L29 T52 R68 B103</text>
      <text x="864" y="2674" class="clear">warnings none</text>
    </g>
    <g class="costume-cell" data-id="epic_024" data-qa-state="accepted">
      <rect x="1276" y="2244" width="416" height="440" rx="8" fill="#222329" stroke="#5b5d67" />
      <text x="1288" y="2265" class="section-label">ISOLATED · 4X</text>
      <rect x="1284" y="2274" width="256" height="256" fill="url(#checker)" stroke="#777" />
      <image href="../../../epic/epic_024.png" x="1284" y="2274" width="256" height="256" />
      <text x="1572" y="2265" class="section-label">WORN · 96PX</text>
      <rect x="1556" y="2288" width="128" height="128" fill="url(#checker)" stroke="#777" />
      <svg x="1556" y="2288" width="128" height="128" viewBox="0 0 128 128" overflow="hidden">
        <svg x="16" y="24" width="96" height="104" viewBox="0 0 96 104" overflow="hidden">
          <image href="../../../../images/characters/gamjabot/references/base-spritesheet-extended.png" x="0" y="0" width="768" height="1144" />
        </svg>
        <image href="../../../epic/epic_024.png" x="32" y="70" width="65" height="65" />
      </svg>
      <text x="1288" y="2556" class="id">epic_024</text>
      <text x="1288" y="2580" class="name"><title>느린빛편찬회 늦광외투</title>느린빛편찬회 늦광외투</text>
      <text x="1288" y="2602" class="meta">EPIC · body · accepted</text>
      <text x="1288" y="2620" class="meta">x 16 · y 46 · size 65</text>
      <text x="1288" y="2638" class="bounds">source L16 T25 R239 B228</text>
      <text x="1288" y="2656" class="bounds">worn L20 T52 R77 B104</text>
      <text x="1288" y="2674" class="clear">warnings none</text>
    </g>
    <g class="costume-cell" data-id="epic_025" data-qa-state="accepted">
      <rect x="4" y="2692" width="416" height="440" rx="8" fill="#222329" stroke="#5b5d67" />
      <text x="16" y="2713" class="section-label">ISOLATED · 4X</text>
      <rect x="12" y="2722" width="256" height="256" fill="url(#checker)" stroke="#777" />
      <image href="../../../epic/epic_025.png" x="12" y="2722" width="256" height="256" />
      <text x="300" y="2713" class="section-label">WORN · 96PX</text>
      <rect x="284" y="2736" width="128" height="128" fill="url(#checker)" stroke="#777" />
      <svg x="284" y="2736" width="128" height="128" viewBox="0 0 128 128" overflow="hidden">
        <svg x="16" y="24" width="96" height="104" viewBox="0 0 96 104" overflow="hidden">
          <image href="../../../../images/characters/gamjabot/references/base-spritesheet-extended.png" x="0" y="0" width="768" height="1144" />
        </svg>
        <image href="../../../epic/epic_025.png" x="37" y="-3" width="54" height="54" />
      </svg>
      <text x="16" y="3004" class="id">epic_025</text>
      <text x="16" y="3028" class="name"><title>거꾸로계단 꿈관</title>거꾸로계단 꿈관</text>
      <text x="16" y="3050" class="meta">EPIC · head · accepted</text>
      <text x="16" y="3068" class="meta">x 21 · y -27 · size 54</text>
      <text x="16" y="3086" class="bounds">source L37 T16 R218 B239</text>
      <text x="16" y="3104" class="bounds">worn L29 T-24 R67 B24</text>
      <text x="16" y="3122" class="clear">warnings none</text>
    </g>
    <g class="costume-cell" data-id="epic_026" data-qa-state="accepted">
      <rect x="428" y="2692" width="416" height="440" rx="8" fill="#222329" stroke="#5b5d67" />
      <text x="440" y="2713" class="section-label">ISOLATED · 4X</text>
      <rect x="436" y="2722" width="256" height="256" fill="url(#checker)" stroke="#777" />
      <image href="../../../epic/epic_026.png" x="436" y="2722" width="256" height="256" />
      <text x="724" y="2713" class="section-label">WORN · 96PX</text>
      <rect x="708" y="2736" width="128" height="128" fill="url(#checker)" stroke="#777" />
      <svg x="708" y="2736" width="128" height="128" viewBox="0 0 128 128" overflow="hidden">
        <svg x="16" y="24" width="96" height="104" viewBox="0 0 96 104" overflow="hidden">
          <image href="../../../../images/characters/gamjabot/references/base-spritesheet-extended.png" x="0" y="0" width="768" height="1144" />
        </svg>
        <image href="../../../epic/epic_026.png" x="32" y="-8" width="65" height="65" />
      </svg>
      <text x="440" y="3004" class="id">epic_026</text>
      <text x="440" y="3028" class="name"><title>접힌복도 사잇문관</title>접힌복도 사잇문관</text>
      <text x="440" y="3050" class="meta">EPIC · head · accepted</text>
      <text x="440" y="3068" class="meta">x 16 · y -32 · size 65</text>
      <text x="440" y="3086" class="bounds">source L16 T34 R239 B220</text>
      <text x="440" y="3104" class="bounds">worn L20 T-23 R77 B24</text>
      <text x="440" y="3122" class="clear">warnings none</text>
    </g>
    <g class="costume-cell" data-id="epic_027" data-qa-state="accepted">
      <rect x="852" y="2692" width="416" height="440" rx="8" fill="#222329" stroke="#5b5d67" />
      <text x="864" y="2713" class="section-label">ISOLATED · 4X</text>
      <rect x="860" y="2722" width="256" height="256" fill="url(#checker)" stroke="#777" />
      <image href="../../../epic/epic_027.png" x="860" y="2722" width="256" height="256" />
      <text x="1148" y="2713" class="section-label">WORN · 96PX</text>
      <rect x="1132" y="2736" width="128" height="128" fill="url(#checker)" stroke="#777" />
      <svg x="1132" y="2736" width="128" height="128" viewBox="0 0 128 128" overflow="hidden">
        <svg x="16" y="24" width="96" height="104" viewBox="0 0 96 104" overflow="hidden">
          <image href="../../../../images/characters/gamjabot/references/base-spritesheet-extended.png" x="0" y="0" width="768" height="1144" />
        </svg>
        <image href="../../../epic/epic_027.png" x="27" y="-13" width="74" height="74" />
      </svg>
      <text x="864" y="3004" class="id">epic_027</text>
      <text x="864" y="3028" class="name"><title>한박자늦은 모래관</title>한박자늦은 모래관</text>
      <text x="864" y="3050" class="meta">EPIC · head · accepted</text>
      <text x="864" y="3068" class="meta">x 11 · y -37 · size 74</text>
      <text x="864" y="3086" class="bounds">source L16 T46 R239 B209</text>
      <text x="864" y="3104" class="bounds">worn L16 T-24 R80 B24</text>
      <text x="864" y="3122" class="clear">warnings none</text>
    </g>
    <g class="costume-cell" data-id="epic_028" data-qa-state="accepted">
      <rect x="1276" y="2692" width="416" height="440" rx="8" fill="#222329" stroke="#5b5d67" />
      <text x="1288" y="2713" class="section-label">ISOLATED · 4X</text>
      <rect x="1284" y="2722" width="256" height="256" fill="url(#checker)" stroke="#777" />
      <image href="../../../epic/epic_028.png" x="1284" y="2722" width="256" height="256" />
      <text x="1572" y="2713" class="section-label">WORN · 96PX</text>
      <rect x="1556" y="2736" width="128" height="128" fill="url(#checker)" stroke="#777" />
      <svg x="1556" y="2736" width="128" height="128" viewBox="0 0 128 128" overflow="hidden">
        <svg x="16" y="24" width="96" height="104" viewBox="0 0 96 104" overflow="hidden">
          <image href="../../../../images/characters/gamjabot/references/base-spritesheet-extended.png" x="0" y="0" width="768" height="1144" />
        </svg>
        <image href="../../../epic/epic_028.png" x="35" y="-5" width="58" height="58" />
      </svg>
      <text x="1288" y="3004" class="id">epic_028</text>
      <text x="1288" y="3028" class="name"><title>되감긴미로 포갬관</title>되감긴미로 포갬관</text>
      <text x="1288" y="3050" class="meta">EPIC · head · accepted</text>
      <text x="1288" y="3068" class="meta">x 19 · y -29 · size 58</text>
      <text x="1288" y="3086" class="bounds">source L16 T23 R239 B232</text>
      <text x="1288" y="3104" class="bounds">worn L23 T-24 R73 B24</text>
      <text x="1288" y="3122" class="clear">warnings none</text>
    </g>
    <g class="costume-cell" data-id="epic_029" data-qa-state="accepted">
      <rect x="4" y="3140" width="416" height="440" rx="8" fill="#222329" stroke="#5b5d67" />
      <text x="16" y="3161" class="section-label">ISOLATED · 4X</text>
      <rect x="12" y="3170" width="256" height="256" fill="url(#checker)" stroke="#777" />
      <image href="../../../epic/epic_029.png" x="12" y="3170" width="256" height="256" />
      <text x="300" y="3161" class="section-label">WORN · 96PX</text>
      <rect x="284" y="3184" width="128" height="128" fill="url(#checker)" stroke="#777" />
      <svg x="284" y="3184" width="128" height="128" viewBox="0 0 128 128" overflow="hidden">
        <svg x="16" y="24" width="96" height="104" viewBox="0 0 96 104" overflow="hidden">
          <image href="../../../../images/characters/gamjabot/references/base-spritesheet-extended.png" x="0" y="0" width="768" height="1144" />
        </svg>
        <image href="../../../epic/epic_029.png" x="13" y="10" width="102" height="102" />
      </svg>
      <text x="16" y="3452" class="id">epic_029</text>
      <text x="16" y="3476" class="name"><title>어긋난초점 꿈가리개</title>어긋난초점 꿈가리개</text>
      <text x="16" y="3498" class="meta">EPIC · face · accepted</text>
      <text x="16" y="3516" class="meta">x -3 · y -14 · size 102</text>
      <text x="16" y="3534" class="bounds">source L16 T78 R239 B177</text>
      <text x="16" y="3552" class="bounds">worn L3 T17 R93 B57</text>
      <text x="16" y="3570" class="clear">warnings none</text>
    </g>
    <g class="costume-cell" data-id="epic_030" data-qa-state="accepted">
      <rect x="428" y="3140" width="416" height="440" rx="8" fill="#222329" stroke="#5b5d67" />
      <text x="440" y="3161" class="section-label">ISOLATED · 4X</text>
      <rect x="436" y="3170" width="256" height="256" fill="url(#checker)" stroke="#777" />
      <image href="../../../epic/epic_030.png" x="436" y="3170" width="256" height="256" />
      <text x="724" y="3161" class="section-label">WORN · 96PX</text>
      <rect x="708" y="3184" width="128" height="128" fill="url(#checker)" stroke="#777" />
      <svg x="708" y="3184" width="128" height="128" viewBox="0 0 128 128" overflow="hidden">
        <svg x="16" y="24" width="96" height="104" viewBox="0 0 96 104" overflow="hidden">
          <image href="../../../../images/characters/gamjabot/references/base-spritesheet-extended.png" x="0" y="0" width="768" height="1144" />
        </svg>
        <image href="../../../epic/epic_030.png" x="23" y="65" width="82" height="82" />
      </svg>
      <text x="440" y="3452" class="id">epic_030</text>
      <text x="440" y="3476" class="name"><title>위로낙하 반전칼라</title>위로낙하 반전칼라</text>
      <text x="440" y="3498" class="meta">EPIC · neck · accepted</text>
      <text x="440" y="3516" class="meta">x 7 · y 41 · size 82</text>
      <text x="440" y="3534" class="bounds">source L16 T59 R239 B195</text>
      <text x="440" y="3552" class="bounds">worn L12 T60 R84 B104</text>
      <text x="440" y="3570" class="clear">warnings none</text>
    </g>
    <g class="costume-cell" data-id="epic_031" data-qa-state="accepted">
      <rect x="852" y="3140" width="416" height="440" rx="8" fill="#222329" stroke="#5b5d67" />
      <text x="864" y="3161" class="section-label">ISOLATED · 4X</text>
      <rect x="860" y="3170" width="256" height="256" fill="url(#checker)" stroke="#777" />
      <image href="../../../epic/epic_031.png" x="860" y="3170" width="256" height="256" />
      <text x="1148" y="3161" class="section-label">WORN · 96PX</text>
      <rect x="1132" y="3184" width="128" height="128" fill="url(#checker)" stroke="#777" />
      <svg x="1132" y="3184" width="128" height="128" viewBox="0 0 128 128" overflow="hidden">
        <svg x="16" y="24" width="96" height="104" viewBox="0 0 96 104" overflow="hidden">
          <image href="../../../../images/characters/gamjabot/references/base-spritesheet-extended.png" x="0" y="0" width="768" height="1144" />
        </svg>
        <image href="../../../epic/epic_031.png" x="35" y="72" width="59" height="59" />
      </svg>
      <text x="864" y="3452" class="id">epic_031</text>
      <text x="864" y="3476" class="name"><title>안팎반전 복도망토</title>안팎반전 복도망토</text>
      <text x="864" y="3498" class="meta">EPIC · body · accepted</text>
      <text x="864" y="3516" class="meta">x 19 · y 48 · size 59</text>
      <text x="864" y="3534" class="bounds">source L25 T16 R230 B239</text>
      <text x="864" y="3552" class="bounds">worn L25 T52 R72 B103</text>
      <text x="864" y="3570" class="clear">warnings none</text>
    </g>
</svg>
