<?xml version="1.0" encoding="UTF-8"?>
<svg xmlns="http://www.w3.org/2000/svg" width="1400" height="3600" viewBox="0 0 1400 3600">
  <title>Gamjabot rare worn costume audit</title>
  <defs>
    <pattern id="checker" width="16" height="16" patternUnits="userSpaceOnUse">
      <rect width="16" height="16" fill="#f1f1f1" />
      <rect width="8" height="8" fill="#d8d8d8" />
      <rect x="8" y="8" width="8" height="8" fill="#d8d8d8" />
    </pattern>
    <style>
      text { font-family: "Segoe UI", sans-serif; fill: #f4f4f5; }
      .label { font: 700 12px Consolas, monospace; fill: #7fd7ff; }
      .name { font-size: 17px; font-weight: 700; }
      .meta { font: 12px Consolas, monospace; fill: #ffcf53; }
      .observation { font-size: 11px; fill: #d8d8dc; }
      .warning { font: 700 11px Consolas, monospace; fill: #ff8f70; }
    </style>
  </defs>
  <rect width="100%" height="100%" fill="#17181c" />

  <g class="costume-cell" data-id="rare_001">
    <rect x="6" y="6" width="268" height="348" rx="8" fill="#222329" stroke="#5b5d67" />
    <text x="16" y="28" class="label">WORN · rare_001</text>
    <rect x="52" y="40" width="176" height="208" fill="url(#checker)" stroke="#777" />
    <svg x="92" y="58" width="96" height="104" viewBox="0 0 96 104" overflow="hidden">
      <image href="../../../../images/characters/gamjabot/references/base-spritesheet-extended.png" x="0" y="0" width="768" height="1144" />
    </svg>
    <image href="../../../rare/rare_001.png" x="88" y="0" width="100" height="100" preserveAspectRatio="xMidYMid meet" />
    <text x="16" y="276" class="name">보석 왕관</text>
    <text x="16" y="300" class="meta">head · x -4 · y -58 · size 100</text>
    <text x="16" y="322" class="warning">none</text>
    <text x="16" y="340" class="observation">보석 왕관의 단일 머리 장식 실루엣 전체가 캔버스 여백 안에 들어오며, 잘린 중복 조각</text>
  </g>
  <g class="costume-cell" data-id="rare_002">
    <rect x="286" y="6" width="268" height="348" rx="8" fill="#222329" stroke="#5b5d67" />
    <text x="296" y="28" class="label">WORN · rare_002</text>
    <rect x="332" y="40" width="176" height="208" fill="url(#checker)" stroke="#777" />
    <svg x="372" y="58" width="96" height="104" viewBox="0 0 96 104" overflow="hidden">
      <image href="../../../../images/characters/gamjabot/references/base-spritesheet-extended.png" x="0" y="0" width="768" height="1144" />
    </svg>
    <image href="../../../rare/rare_002.png" x="368" y="28" width="104" height="104" preserveAspectRatio="xMidYMid meet" />
    <text x="296" y="276" class="name">투명 우주 헬멧</text>
    <text x="296" y="300" class="meta">head · x -4 · y -30 · size 104</text>
    <text x="296" y="322" class="warning">none</text>
    <text x="296" y="340" class="observation">투명 우주 헬멧의 단일 머리 장식 실루엣 전체가 캔버스 여백 안에 들어오며, 잘린 중복</text>
  </g>
  <g class="costume-cell" data-id="rare_003">
    <rect x="566" y="6" width="268" height="348" rx="8" fill="#222329" stroke="#5b5d67" />
    <text x="576" y="28" class="label">WORN · rare_003</text>
    <rect x="612" y="40" width="176" height="208" fill="url(#checker)" stroke="#777" />
    <svg x="652" y="58" width="96" height="104" viewBox="0 0 96 104" overflow="hidden">
      <image href="../../../../images/characters/gamjabot/references/base-spritesheet-extended.png" x="0" y="0" width="768" height="1144" />
    </svg>
    <image href="../../../rare/rare_003.png" x="648" y="4" width="104" height="104" preserveAspectRatio="xMidYMid meet" />
    <text x="576" y="276" class="name">별빛 마법사 모자</text>
    <text x="576" y="300" class="meta">head · x -4 · y -54 · size 104</text>
    <text x="576" y="322" class="warning">none</text>
    <text x="576" y="340" class="observation">모자 아래 캔버스 끝에 같은 별무늬 모자의 다음 조각이 잘려 반복되어 새 단일 모자 원</text>
  </g>
  <g class="costume-cell" data-id="rare_004">
    <rect x="846" y="6" width="268" height="348" rx="8" fill="#222329" stroke="#5b5d67" />
    <text x="856" y="28" class="label">WORN · rare_004</text>
    <rect x="892" y="40" width="176" height="208" fill="url(#checker)" stroke="#777" />
    <svg x="932" y="58" width="96" height="104" viewBox="0 0 96 104" overflow="hidden">
      <image href="../../../../images/characters/gamjabot/references/base-spritesheet-extended.png" x="0" y="0" width="768" height="1144" />
    </svg>
    <image href="../../../rare/rare_004.png" x="928" y="75" width="104" height="104" preserveAspectRatio="xMidYMid meet" />
    <text x="856" y="276" class="name">붉은 영웅 망토</text>
    <text x="856" y="300" class="meta">body · x -4 · y 17 · size 104</text>
    <text x="856" y="322" class="warning">none</text>
    <text x="856" y="340" class="observation">붉은 영웅 망토의 단일 몸 장식 실루엣 전체가 캔버스 여백 안에 들어오며, 잘린 중복 </text>
  </g>
  <g class="costume-cell" data-id="rare_005">
    <rect x="1126" y="6" width="268" height="348" rx="8" fill="#222329" stroke="#5b5d67" />
    <text x="1136" y="28" class="label">WORN · rare_005</text>
    <rect x="1172" y="40" width="176" height="208" fill="url(#checker)" stroke="#777" />
    <svg x="1212" y="58" width="96" height="104" viewBox="0 0 96 104" overflow="hidden">
      <image href="../../../../images/characters/gamjabot/references/base-spritesheet-extended.png" x="0" y="0" width="768" height="1144" />
    </svg>
    <image href="../../../rare/rare_005.png" x="1208" y="28" width="104" height="104" preserveAspectRatio="xMidYMid meet" />
    <text x="1136" y="276" class="name">개구리 후드</text>
    <text x="1136" y="300" class="meta">head · x -4 · y -30 · size 104</text>
    <text x="1136" y="322" class="warning">none</text>
    <text x="1136" y="340" class="observation">개구리 후드의 단일 머리 장식 실루엣 전체가 캔버스 여백 안에 들어오며, 잘린 중복 조</text>
  </g>
  <g class="costume-cell" data-id="rare_006">
    <rect x="6" y="366" width="268" height="348" rx="8" fill="#222329" stroke="#5b5d67" />
    <text x="16" y="388" class="label">WORN · rare_006</text>
    <rect x="52" y="400" width="176" height="208" fill="url(#checker)" stroke="#777" />
    <svg x="92" y="418" width="96" height="104" viewBox="0 0 96 104" overflow="hidden">
      <image href="../../../../images/characters/gamjabot/references/base-spritesheet-extended.png" x="0" y="0" width="768" height="1144" />
    </svg>
    <image href="../../../rare/rare_006.png" x="88" y="388" width="104" height="104" preserveAspectRatio="xMidYMid meet" />
    <text x="16" y="636" class="name">검은 고양이 후드</text>
    <text x="16" y="660" class="meta">head · x -4 · y -30 · size 104</text>
    <text x="16" y="682" class="warning">none</text>
    <text x="16" y="700" class="observation">검은 고양이 후드의 단일 머리 장식 실루엣 전체가 캔버스 여백 안에 들어오며, 잘린 중</text>
  </g>
  <g class="costume-cell" data-id="rare_007">
    <rect x="286" y="366" width="268" height="348" rx="8" fill="#222329" stroke="#5b5d67" />
    <text x="296" y="388" class="label">WORN · rare_007</text>
    <rect x="332" y="400" width="176" height="208" fill="url(#checker)" stroke="#777" />
    <svg x="372" y="418" width="96" height="104" viewBox="0 0 96 104" overflow="hidden">
      <image href="../../../../images/characters/gamjabot/references/base-spritesheet-extended.png" x="0" y="0" width="768" height="1144" />
    </svg>
    <image href="../../../rare/rare_007.png" x="364" y="410" width="112" height="112" preserveAspectRatio="xMidYMid meet" />
    <text x="296" y="636" class="name">해적 선장 세트</text>
    <text x="296" y="660" class="meta">full · x -8 · y -8 · size 112</text>
    <text x="296" y="682" class="warning">isolated-specks</text>
    <text x="296" y="700" class="observation">해적 모자 아래에 같은 해골 문양 모자가 한 번 더 잘려 들어와 단일 모자로 다시 그려</text>
  </g>
  <g class="costume-cell" data-id="rare_008">
    <rect x="566" y="366" width="268" height="348" rx="8" fill="#222329" stroke="#5b5d67" />
    <text x="576" y="388" class="label">WORN · rare_008</text>
    <rect x="612" y="400" width="176" height="208" fill="url(#checker)" stroke="#777" />
    <svg x="652" y="418" width="96" height="104" viewBox="0 0 96 104" overflow="hidden">
      <image href="../../../../images/characters/gamjabot/references/base-spritesheet-extended.png" x="0" y="0" width="768" height="1144" />
    </svg>
    <image href="../../../rare/rare_008.png" x="648" y="388" width="104" height="104" preserveAspectRatio="xMidYMid meet" />
    <text x="576" y="636" class="name">닌자 머리띠</text>
    <text x="576" y="660" class="meta">head · x -4 · y -30 · size 104</text>
    <text x="576" y="682" class="warning">none</text>
    <text x="576" y="700" class="observation">닌자 머리띠의 단일 머리 장식 실루엣 전체가 캔버스 여백 안에 들어오며, 잘린 중복 조</text>
  </g>
  <g class="costume-cell" data-id="rare_009">
    <rect x="846" y="366" width="268" height="348" rx="8" fill="#222329" stroke="#5b5d67" />
    <text x="856" y="388" class="label">WORN · rare_009</text>
    <rect x="892" y="400" width="176" height="208" fill="url(#checker)" stroke="#777" />
    <svg x="932" y="418" width="96" height="104" viewBox="0 0 96 104" overflow="hidden">
      <image href="../../../../images/characters/gamjabot/references/base-spritesheet-extended.png" x="0" y="0" width="768" height="1144" />
    </svg>
    <image href="../../../rare/rare_009.png" x="928" y="388" width="104" height="104" preserveAspectRatio="xMidYMid meet" />
    <text x="856" y="636" class="name">황동 스팀펑크 고글</text>
    <text x="856" y="660" class="meta">head · x -4 · y -30 · size 104</text>
    <text x="856" y="682" class="warning">none</text>
    <text x="856" y="700" class="observation">황동 스팀펑크 고글의 단일 머리 장식 실루엣 전체가 캔버스 여백 안에 들어오며, 잘린 </text>
  </g>
  <g class="costume-cell" data-id="rare_010">
    <rect x="1126" y="366" width="268" height="348" rx="8" fill="#222329" stroke="#5b5d67" />
    <text x="1136" y="388" class="label">WORN · rare_010</text>
    <rect x="1172" y="400" width="176" height="208" fill="url(#checker)" stroke="#777" />
    <svg x="1212" y="418" width="96" height="104" viewBox="0 0 96 104" overflow="hidden">
      <image href="../../../../images/characters/gamjabot/references/base-spritesheet-extended.png" x="0" y="0" width="768" height="1144" />
    </svg>
    <image href="../../../rare/rare_010.png" x="1208" y="388" width="104" height="104" preserveAspectRatio="xMidYMid meet" />
    <text x="1136" y="636" class="name">숲속 버섯 모자</text>
    <text x="1136" y="660" class="meta">head · x -4 · y -30 · size 104</text>
    <text x="1136" y="682" class="warning">none</text>
    <text x="1136" y="700" class="observation">숲속 버섯 모자의 단일 머리 장식 실루엣 전체가 캔버스 여백 안에 들어오며, 잘린 중복</text>
  </g>
  <g class="costume-cell" data-id="rare_011">
    <rect x="6" y="726" width="268" height="348" rx="8" fill="#222329" stroke="#5b5d67" />
    <text x="16" y="748" class="label">WORN · rare_011</text>
    <rect x="52" y="760" width="176" height="208" fill="url(#checker)" stroke="#777" />
    <svg x="92" y="778" width="96" height="104" viewBox="0 0 96 104" overflow="hidden">
      <image href="../../../../images/characters/gamjabot/references/base-spritesheet-extended.png" x="0" y="0" width="768" height="1144" />
    </svg>
    <image href="../../../rare/rare_011.png" x="84" y="770" width="112" height="112" preserveAspectRatio="xMidYMid meet" />
    <text x="16" y="996" class="name">꿀벌 세트</text>
    <text x="16" y="1020" class="meta">full · x -8 · y -8 · size 112</text>
    <text x="16" y="1042" class="warning">none</text>
    <text x="16" y="1060" class="observation">이름에는 세트가 들어가지만 원본에는 검정 띠와 노란 촉각이 연결된 꿀벌 머리띠 한 개만</text>
  </g>
  <g class="costume-cell" data-id="rare_012">
    <rect x="286" y="726" width="268" height="348" rx="8" fill="#222329" stroke="#5b5d67" />
    <text x="296" y="748" class="label">WORN · rare_012</text>
    <rect x="332" y="760" width="176" height="208" fill="url(#checker)" stroke="#777" />
    <svg x="372" y="778" width="96" height="104" viewBox="0 0 96 104" overflow="hidden">
      <image href="../../../../images/characters/gamjabot/references/base-spritesheet-extended.png" x="0" y="0" width="768" height="1144" />
    </svg>
    <image href="../../../rare/rare_012.png" x="368" y="748" width="104" height="104" preserveAspectRatio="xMidYMid meet" />
    <text x="296" y="996" class="name">상어 후드</text>
    <text x="296" y="1020" class="meta">head · x -4 · y -30 · size 104</text>
    <text x="296" y="1042" class="warning">none</text>
    <text x="296" y="1060" class="observation">상어 후드 아래쪽에 두 번째 상어 조각이 잘려 보여 단일 후드의 완전한 외곽선으로 교체</text>
  </g>
  <g class="costume-cell" data-id="rare_013">
    <rect x="566" y="726" width="268" height="348" rx="8" fill="#222329" stroke="#5b5d67" />
    <text x="576" y="748" class="label">WORN · rare_013</text>
    <rect x="612" y="760" width="176" height="208" fill="url(#checker)" stroke="#777" />
    <svg x="652" y="778" width="96" height="104" viewBox="0 0 96 104" overflow="hidden">
      <image href="../../../../images/characters/gamjabot/references/base-spritesheet-extended.png" x="0" y="0" width="768" height="1144" />
    </svg>
    <image href="../../../rare/rare_013.png" x="648" y="748" width="104" height="104" preserveAspectRatio="xMidYMid meet" />
    <text x="576" y="996" class="name">레트로 로봇 모자</text>
    <text x="576" y="1020" class="meta">head · x -4 · y -30 · size 104</text>
    <text x="576" y="1042" class="warning">none</text>
    <text x="576" y="1060" class="observation">레트로 로봇 모자의 단일 머리 장식 실루엣 전체가 캔버스 여백 안에 들어오며, 잘린 중</text>
  </g>
  <g class="costume-cell" data-id="rare_014">
    <rect x="846" y="726" width="268" height="348" rx="8" fill="#222329" stroke="#5b5d67" />
    <text x="856" y="748" class="label">WORN · rare_014</text>
    <rect x="892" y="760" width="176" height="208" fill="url(#checker)" stroke="#777" />
    <svg x="932" y="778" width="96" height="104" viewBox="0 0 96 104" overflow="hidden">
      <image href="../../../../images/characters/gamjabot/references/base-spritesheet-extended.png" x="0" y="0" width="768" height="1144" />
    </svg>
    <image href="../../../rare/rare_014.png" x="928" y="734" width="92" height="92" preserveAspectRatio="xMidYMid meet" />
    <text x="856" y="996" class="name">마법 파티 모자</text>
    <text x="856" y="1020" class="meta">head · x -4 · y -44 · size 92</text>
    <text x="856" y="1042" class="warning">none</text>
    <text x="856" y="1060" class="observation">파티 모자 아래에 같은 분홍 별무늬 모자가 반복되어 잘린 잔상이 남아 있다.</text>
  </g>
  <g class="costume-cell" data-id="rare_015">
    <rect x="1126" y="726" width="268" height="348" rx="8" fill="#222329" stroke="#5b5d67" />
    <text x="1136" y="748" class="label">WORN · rare_015</text>
    <rect x="1172" y="760" width="176" height="208" fill="url(#checker)" stroke="#777" />
    <svg x="1212" y="778" width="96" height="104" viewBox="0 0 96 104" overflow="hidden">
      <image href="../../../../images/characters/gamjabot/references/base-spritesheet-extended.png" x="0" y="0" width="768" height="1144" />
    </svg>
    <image href="../../../rare/rare_015.png" x="1204" y="770" width="112" height="112" preserveAspectRatio="xMidYMid meet" />
    <text x="1136" y="996" class="name">초밥 요리사 세트</text>
    <text x="1136" y="1020" class="meta">full · x -8 · y -8 · size 112</text>
    <text x="1136" y="1042" class="warning">none</text>
    <text x="1136" y="1060" class="observation">초밥 요리사 세트 원본에 서로 독립 장착 가능한 초밥 요리사 머리띠·초밥 요리사 제복이</text>
  </g>
  <g class="costume-cell" data-id="rare_016">
    <rect x="6" y="1086" width="268" height="348" rx="8" fill="#222329" stroke="#5b5d67" />
    <text x="16" y="1108" class="label">WORN · rare_016</text>
    <rect x="52" y="1120" width="176" height="208" fill="url(#checker)" stroke="#777" />
    <svg x="92" y="1138" width="96" height="104" viewBox="0 0 96 104" overflow="hidden">
      <image href="../../../../images/characters/gamjabot/references/base-spritesheet-extended.png" x="0" y="0" width="768" height="1144" />
    </svg>
    <image href="../../../rare/rare_016.png" x="88" y="1108" width="104" height="104" preserveAspectRatio="xMidYMid meet" />
    <text x="16" y="1356" class="name">붉은 용 후드</text>
    <text x="16" y="1380" class="meta">head · x -4 · y -30 · size 104</text>
    <text x="16" y="1402" class="warning">none</text>
    <text x="16" y="1420" class="observation">붉은 용 후드의 턱과 오른쪽 가시가 캔버스 경계에서 끊겨 전체 실루엣이 보이는 원본이 </text>
  </g>
  <g class="costume-cell" data-id="rare_017">
    <rect x="286" y="1086" width="268" height="348" rx="8" fill="#222329" stroke="#5b5d67" />
    <text x="296" y="1108" class="label">WORN · rare_017</text>
    <rect x="332" y="1120" width="176" height="208" fill="url(#checker)" stroke="#777" />
    <svg x="372" y="1138" width="96" height="104" viewBox="0 0 96 104" overflow="hidden">
      <image href="../../../../images/characters/gamjabot/references/base-spritesheet-extended.png" x="0" y="0" width="768" height="1144" />
    </svg>
    <image href="../../../rare/rare_017.png" x="368" y="1108" width="104" height="104" preserveAspectRatio="xMidYMid meet" />
    <text x="296" y="1356" class="name">얼음 마법사 후드</text>
    <text x="296" y="1380" class="meta">head · x -4 · y -30 · size 104</text>
    <text x="296" y="1402" class="warning">none</text>
    <text x="296" y="1420" class="observation">얼음 후드 아래에 눈꽃 문양이 있는 두 번째 후드 조각이 잘려 반복되어 있다.</text>
  </g>
  <g class="costume-cell" data-id="rare_018">
    <rect x="566" y="1086" width="268" height="348" rx="8" fill="#222329" stroke="#5b5d67" />
    <text x="576" y="1108" class="label">WORN · rare_018</text>
    <rect x="612" y="1120" width="176" height="208" fill="url(#checker)" stroke="#777" />
    <svg x="652" y="1138" width="96" height="104" viewBox="0 0 96 104" overflow="hidden">
      <image href="../../../../images/characters/gamjabot/references/base-spritesheet-extended.png" x="0" y="0" width="768" height="1144" />
    </svg>
    <image href="../../../rare/rare_018.png" x="644" y="1130" width="112" height="112" preserveAspectRatio="xMidYMid meet" />
    <text x="576" y="1356" class="name">숲 레인저 세트</text>
    <text x="576" y="1380" class="meta">full · x -8 · y -8 · size 112</text>
    <text x="576" y="1402" class="warning">none</text>
    <text x="576" y="1420" class="observation">숲 레인저 세트 원본에 서로 독립 장착 가능한 숲 레인저 모자·숲 레인저 조끼이(가) </text>
  </g>
  <g class="costume-cell" data-id="rare_019">
    <rect x="846" y="1086" width="268" height="348" rx="8" fill="#222329" stroke="#5b5d67" />
    <text x="856" y="1108" class="label">WORN · rare_019</text>
    <rect x="892" y="1120" width="176" height="208" fill="url(#checker)" stroke="#777" />
    <svg x="932" y="1138" width="96" height="104" viewBox="0 0 96 104" overflow="hidden">
      <image href="../../../../images/characters/gamjabot/references/base-spritesheet-extended.png" x="0" y="0" width="768" height="1144" />
    </svg>
    <image href="../../../rare/rare_019.png" x="928" y="1108" width="104" height="104" preserveAspectRatio="xMidYMid meet" />
    <text x="856" y="1356" class="name">레트로 우주 안테나 헬멧</text>
    <text x="856" y="1380" class="meta">head · x -4 · y -30 · size 104</text>
    <text x="856" y="1402" class="warning">none</text>
    <text x="856" y="1420" class="observation">레트로 우주 안테나 헬멧의 단일 머리 장식 실루엣 전체가 캔버스 여백 안에 들어오며, </text>
  </g>
  <g class="costume-cell" data-id="rare_020">
    <rect x="1126" y="1086" width="268" height="348" rx="8" fill="#222329" stroke="#5b5d67" />
    <text x="1136" y="1108" class="label">WORN · rare_020</text>
    <rect x="1172" y="1120" width="176" height="208" fill="url(#checker)" stroke="#777" />
    <svg x="1212" y="1138" width="96" height="104" viewBox="0 0 96 104" overflow="hidden">
      <image href="../../../../images/characters/gamjabot/references/base-spritesheet-extended.png" x="0" y="0" width="768" height="1144" />
    </svg>
    <image href="../../../rare/rare_020.png" x="1208" y="1155" width="104" height="104" preserveAspectRatio="xMidYMid meet" />
    <text x="1136" y="1356" class="name">뱀파이어 망토</text>
    <text x="1136" y="1380" class="meta">body · x -4 · y 17 · size 104</text>
    <text x="1136" y="1402" class="warning">none</text>
    <text x="1136" y="1420" class="observation">뱀파이어 망토의 단일 몸 장식 실루엣 전체가 캔버스 여백 안에 들어오며, 잘린 중복 조</text>
  </g>
  <g class="costume-cell" data-id="rare_021">
    <rect x="6" y="1446" width="268" height="348" rx="8" fill="#222329" stroke="#5b5d67" />
    <text x="16" y="1468" class="label">WORN · rare_021</text>
    <rect x="52" y="1480" width="176" height="208" fill="url(#checker)" stroke="#777" />
    <svg x="92" y="1498" width="96" height="104" viewBox="0 0 96 104" overflow="hidden">
      <image href="../../../../images/characters/gamjabot/references/base-spritesheet-extended.png" x="0" y="0" width="768" height="1144" />
    </svg>
    <image href="../../../rare/rare_021.png" x="88" y="1468" width="104" height="104" preserveAspectRatio="xMidYMid meet" />
    <text x="16" y="1716" class="name">왕실 기사 투구</text>
    <text x="16" y="1740" class="meta">head · x -4 · y -30 · size 104</text>
    <text x="16" y="1762" class="warning">none</text>
    <text x="16" y="1780" class="observation">기사 투구 아래에 같은 금속 투구의 다음 조각이 잘려 들어와 단일 투구로 정리해야 한다</text>
  </g>
  <g class="costume-cell" data-id="rare_022">
    <rect x="286" y="1446" width="268" height="348" rx="8" fill="#222329" stroke="#5b5d67" />
    <text x="296" y="1468" class="label">WORN · rare_022</text>
    <rect x="332" y="1480" width="176" height="208" fill="url(#checker)" stroke="#777" />
    <svg x="372" y="1498" width="96" height="104" viewBox="0 0 96 104" overflow="hidden">
      <image href="../../../../images/characters/gamjabot/references/base-spritesheet-extended.png" x="0" y="0" width="768" height="1144" />
    </svg>
    <image href="../../../rare/rare_022.png" x="368" y="1458" width="104" height="104" preserveAspectRatio="xMidYMid meet" />
    <text x="296" y="1716" class="name">카니발 광대 모자</text>
    <text x="296" y="1740" class="meta">head · x -4 · y -40 · size 104</text>
    <text x="296" y="1762" class="warning">none</text>
    <text x="296" y="1780" class="observation">광대 모자 아래쪽에 동일한 빨강·초록 모자 조각이 반복되어 잘려 있다.</text>
  </g>
  <g class="costume-cell" data-id="rare_023">
    <rect x="566" y="1446" width="268" height="348" rx="8" fill="#222329" stroke="#5b5d67" />
    <text x="576" y="1468" class="label">WORN · rare_023</text>
    <rect x="612" y="1480" width="176" height="208" fill="url(#checker)" stroke="#777" />
    <svg x="652" y="1498" width="96" height="104" viewBox="0 0 96 104" overflow="hidden">
      <image href="../../../../images/characters/gamjabot/references/base-spritesheet-extended.png" x="0" y="0" width="768" height="1144" />
    </svg>
    <image href="../../../rare/rare_023.png" x="648" y="1468" width="104" height="104" preserveAspectRatio="xMidYMid meet" />
    <text x="576" y="1716" class="name">심해 잠수 헬멧</text>
    <text x="576" y="1740" class="meta">head · x -4 · y -30 · size 104</text>
    <text x="576" y="1762" class="warning">none</text>
    <text x="576" y="1780" class="observation">잠수 헬멧 창 안에 착용자의 눈과 입이 원본에 합쳐져 있어 빈 투명 창을 가진 독립 헬</text>
  </g>
  <g class="costume-cell" data-id="rare_024">
    <rect x="846" y="1446" width="268" height="348" rx="8" fill="#222329" stroke="#5b5d67" />
    <text x="856" y="1468" class="label">WORN · rare_024</text>
    <rect x="892" y="1480" width="176" height="208" fill="url(#checker)" stroke="#777" />
    <svg x="932" y="1498" width="96" height="104" viewBox="0 0 96 104" overflow="hidden">
      <image href="../../../../images/characters/gamjabot/references/base-spritesheet-extended.png" x="0" y="0" width="768" height="1144" />
    </svg>
    <image href="../../../rare/rare_024.png" x="928" y="1490" width="104" height="104" preserveAspectRatio="xMidYMid meet" />
    <text x="856" y="1716" class="name">황금 모노클</text>
    <text x="856" y="1740" class="meta">face · x -4 · y -8 · size 104</text>
    <text x="856" y="1762" class="warning">none</text>
    <text x="856" y="1780" class="observation">황금 모노클의 단일 얼굴 장식 실루엣 전체가 캔버스 여백 안에 들어오며, 잘린 중복 조</text>
  </g>
  <g class="costume-cell" data-id="rare_025">
    <rect x="1126" y="1446" width="268" height="348" rx="8" fill="#222329" stroke="#5b5d67" />
    <text x="1136" y="1468" class="label">WORN · rare_025</text>
    <rect x="1172" y="1480" width="176" height="208" fill="url(#checker)" stroke="#777" />
    <svg x="1212" y="1498" width="96" height="104" viewBox="0 0 96 104" overflow="hidden">
      <image href="../../../../images/characters/gamjabot/references/base-spritesheet-extended.png" x="0" y="0" width="768" height="1144" />
    </svg>
    <image href="../../../rare/rare_025.png" x="1208" y="1468" width="104" height="104" preserveAspectRatio="xMidYMid meet" />
    <text x="1136" y="1716" class="name">연금술사 보석모</text>
    <text x="1136" y="1740" class="meta">head · x -4 · y -30 · size 104</text>
    <text x="1136" y="1762" class="warning">none</text>
    <text x="1136" y="1780" class="observation">연금술사 보석모의 단일 머리 장식 실루엣 전체가 캔버스 여백 안에 들어오며, 잘린 중복</text>
  </g>
  <g class="costume-cell" data-id="rare_026">
    <rect x="6" y="1806" width="268" height="348" rx="8" fill="#222329" stroke="#5b5d67" />
    <text x="16" y="1828" class="label">WORN · rare_026</text>
    <rect x="52" y="1840" width="176" height="208" fill="url(#checker)" stroke="#777" />
    <svg x="92" y="1858" width="96" height="104" viewBox="0 0 96 104" overflow="hidden">
      <image href="../../../../images/characters/gamjabot/references/base-spritesheet-extended.png" x="0" y="0" width="768" height="1144" />
    </svg>
    <image href="../../../rare/rare_026.png" x="88" y="1828" width="104" height="104" preserveAspectRatio="xMidYMid meet" />
    <text x="16" y="2076" class="name">레서판다 후드</text>
    <text x="16" y="2100" class="meta">head · x -4 · y -30 · size 104</text>
    <text x="16" y="2122" class="warning">none</text>
    <text x="16" y="2140" class="observation">레서판다 후드의 단일 머리 장식 실루엣 전체가 캔버스 여백 안에 들어오며, 잘린 중복 </text>
  </g>
  <g class="costume-cell" data-id="rare_027">
    <rect x="286" y="1806" width="268" height="348" rx="8" fill="#222329" stroke="#5b5d67" />
    <text x="296" y="1828" class="label">WORN · rare_027</text>
    <rect x="332" y="1840" width="176" height="208" fill="url(#checker)" stroke="#777" />
    <svg x="372" y="1858" width="96" height="104" viewBox="0 0 96 104" overflow="hidden">
      <image href="../../../../images/characters/gamjabot/references/base-spritesheet-extended.png" x="0" y="0" width="768" height="1144" />
    </svg>
    <image href="../../../rare/rare_027.png" x="368" y="1828" width="104" height="104" preserveAspectRatio="xMidYMid meet" />
    <text x="296" y="2076" class="name">달토끼 머리띠</text>
    <text x="296" y="2100" class="meta">head · x -4 · y -30 · size 104</text>
    <text x="296" y="2122" class="warning">none</text>
    <text x="296" y="2140" class="observation">달토끼 머리띠 아래에 같은 토끼 귀가 반복되어 잘린 다음 행이 보인다.</text>
  </g>
  <g class="costume-cell" data-id="rare_028">
    <rect x="566" y="1806" width="268" height="348" rx="8" fill="#222329" stroke="#5b5d67" />
    <text x="576" y="1828" class="label">WORN · rare_028</text>
    <rect x="612" y="1840" width="176" height="208" fill="url(#checker)" stroke="#777" />
    <svg x="652" y="1858" width="96" height="104" viewBox="0 0 96 104" overflow="hidden">
      <image href="../../../../images/characters/gamjabot/references/base-spritesheet-extended.png" x="0" y="0" width="768" height="1144" />
    </svg>
    <image href="../../../rare/rare_028.png" x="648" y="1828" width="104" height="104" preserveAspectRatio="xMidYMid meet" />
    <text x="576" y="2076" class="name">사막 유목민 두건</text>
    <text x="576" y="2100" class="meta">head · x -4 · y -30 · size 104</text>
    <text x="576" y="2122" class="warning">none</text>
    <text x="576" y="2140" class="observation">유목민 두건 아래 캔버스 끝에 동일한 천 조각이 반복되어 단일 두건으로 다시 그려야 한</text>
  </g>
  <g class="costume-cell" data-id="rare_029">
    <rect x="846" y="1806" width="268" height="348" rx="8" fill="#222329" stroke="#5b5d67" />
    <text x="856" y="1828" class="label">WORN · rare_029</text>
    <rect x="892" y="1840" width="176" height="208" fill="url(#checker)" stroke="#777" />
    <svg x="932" y="1858" width="96" height="104" viewBox="0 0 96 104" overflow="hidden">
      <image href="../../../../images/characters/gamjabot/references/base-spritesheet-extended.png" x="0" y="0" width="768" height="1144" />
    </svg>
    <image href="../../../rare/rare_029.png" x="928" y="1828" width="104" height="104" preserveAspectRatio="xMidYMid meet" />
    <text x="856" y="2076" class="name">산호초 후드</text>
    <text x="856" y="2100" class="meta">head · x -4 · y -30 · size 104</text>
    <text x="856" y="2122" class="warning">none</text>
    <text x="856" y="2140" class="observation">산호 후드 아래에 같은 산호 장식의 다음 조각이 잘려 반복되어 있다.</text>
  </g>
  <g class="costume-cell" data-id="rare_030">
    <rect x="1126" y="1806" width="268" height="348" rx="8" fill="#222329" stroke="#5b5d67" />
    <text x="1136" y="1828" class="label">WORN · rare_030</text>
    <rect x="1172" y="1840" width="176" height="208" fill="url(#checker)" stroke="#777" />
    <svg x="1212" y="1858" width="96" height="104" viewBox="0 0 96 104" overflow="hidden">
      <image href="../../../../images/characters/gamjabot/references/base-spritesheet-extended.png" x="0" y="0" width="768" height="1144" />
    </svg>
    <image href="../../../rare/rare_030.png" x="1208" y="1816" width="104" height="104" preserveAspectRatio="xMidYMid meet" />
    <text x="1136" y="2076" class="name">장난감 병정 모자</text>
    <text x="1136" y="2100" class="meta">head · x -4 · y -42 · size 104</text>
    <text x="1136" y="2122" class="warning">none</text>
    <text x="1136" y="2140" class="observation">병정 모자 아래에 흰 깃털과 모자 조각이 반복되어 잘린 잔상이 있다.</text>
  </g>
  <g class="costume-cell" data-id="rare_031">
    <rect x="6" y="2166" width="268" height="348" rx="8" fill="#222329" stroke="#5b5d67" />
    <text x="16" y="2188" class="label">WORN · rare_031</text>
    <rect x="52" y="2200" width="176" height="208" fill="url(#checker)" stroke="#777" />
    <svg x="92" y="2218" width="96" height="104" viewBox="0 0 96 104" overflow="hidden">
      <image href="../../../../images/characters/gamjabot/references/base-spritesheet-extended.png" x="0" y="0" width="768" height="1144" />
    </svg>
    <image href="../../../rare/rare_031.png" x="88" y="2188" width="104" height="104" preserveAspectRatio="xMidYMid meet" />
    <text x="16" y="2436" class="name">영화감독 베레모</text>
    <text x="16" y="2460" class="meta">head · x -4 · y -30 · size 104</text>
    <text x="16" y="2482" class="warning">none</text>
    <text x="16" y="2500" class="observation">영화감독 베레모 원본에 서로 독립 장착 가능한 영화감독 베레모·영화감독 클래퍼보드이(가</text>
  </g>
  <g class="costume-cell" data-id="rare_032">
    <rect x="286" y="2166" width="268" height="348" rx="8" fill="#222329" stroke="#5b5d67" />
    <text x="296" y="2188" class="label">WORN · rare_032</text>
    <rect x="332" y="2200" width="176" height="208" fill="url(#checker)" stroke="#777" />
    <svg x="372" y="2218" width="96" height="104" viewBox="0 0 96 104" overflow="hidden">
      <image href="../../../../images/characters/gamjabot/references/base-spritesheet-extended.png" x="0" y="0" width="768" height="1144" />
    </svg>
    <image href="../../../rare/rare_032.png" x="368" y="2188" width="104" height="104" preserveAspectRatio="xMidYMid meet" />
    <text x="296" y="2436" class="name">번개 조종사 모자</text>
    <text x="296" y="2460" class="meta">head · x -4 · y -30 · size 104</text>
    <text x="296" y="2482" class="warning">none</text>
    <text x="296" y="2500" class="observation">번개 조종사 모자 원본에 서로 독립 장착 가능한 번개 조종사 모자·번개 조종사 고글이(</text>
  </g>
  <g class="costume-cell" data-id="rare_033">
    <rect x="566" y="2166" width="268" height="348" rx="8" fill="#222329" stroke="#5b5d67" />
    <text x="576" y="2188" class="label">WORN · rare_033</text>
    <rect x="612" y="2200" width="176" height="208" fill="url(#checker)" stroke="#777" />
    <svg x="652" y="2218" width="96" height="104" viewBox="0 0 96 104" overflow="hidden">
      <image href="../../../../images/characters/gamjabot/references/base-spritesheet-extended.png" x="0" y="0" width="768" height="1144" />
    </svg>
    <image href="../../../rare/rare_033.png" x="648" y="2188" width="104" height="104" preserveAspectRatio="xMidYMid meet" />
    <text x="576" y="2436" class="name">벚꽃 화관</text>
    <text x="576" y="2460" class="meta">head · x -4 · y -30 · size 104</text>
    <text x="576" y="2482" class="warning">none</text>
    <text x="576" y="2500" class="observation">벚꽃 화관의 단일 머리 장식 실루엣 전체가 캔버스 여백 안에 들어오며, 잘린 중복 조각</text>
  </g>
  <g class="costume-cell" data-id="rare_034">
    <rect x="846" y="2166" width="268" height="348" rx="8" fill="#222329" stroke="#5b5d67" />
    <text x="856" y="2188" class="label">WORN · rare_034</text>
    <rect x="892" y="2200" width="176" height="208" fill="url(#checker)" stroke="#777" />
    <svg x="932" y="2218" width="96" height="104" viewBox="0 0 96 104" overflow="hidden">
      <image href="../../../../images/characters/gamjabot/references/base-spritesheet-extended.png" x="0" y="0" width="768" height="1144" />
    </svg>
    <image href="../../../rare/rare_034.png" x="928" y="2188" width="104" height="104" preserveAspectRatio="xMidYMid meet" />
    <text x="856" y="2436" class="name">아케이드 외계인 후드</text>
    <text x="856" y="2460" class="meta">head · x -4 · y -30 · size 104</text>
    <text x="856" y="2482" class="warning">none</text>
    <text x="856" y="2500" class="observation">아케이드 외계인 후드의 단일 머리 장식 실루엣 전체가 캔버스 여백 안에 들어오며, 잘린</text>
  </g>
  <g class="costume-cell" data-id="rare_035">
    <rect x="1126" y="2166" width="268" height="348" rx="8" fill="#222329" stroke="#5b5d67" />
    <text x="1136" y="2188" class="label">WORN · rare_035</text>
    <rect x="1172" y="2200" width="176" height="208" fill="url(#checker)" stroke="#777" />
    <svg x="1212" y="2218" width="96" height="104" viewBox="0 0 96 104" overflow="hidden">
      <image href="../../../../images/characters/gamjabot/references/base-spritesheet-extended.png" x="0" y="0" width="768" height="1144" />
    </svg>
    <image href="../../../rare/rare_035.png" x="1208" y="2188" width="104" height="104" preserveAspectRatio="xMidYMid meet" />
    <text x="1136" y="2436" class="name">고딕 레이스 보닛</text>
    <text x="1136" y="2460" class="meta">head · x -4 · y -30 · size 104</text>
    <text x="1136" y="2482" class="warning">none</text>
    <text x="1136" y="2500" class="observation">고딕 레이스 보닛의 단일 머리 장식 실루엣 전체가 캔버스 여백 안에 들어오며, 잘린 중</text>
  </g>
  <g class="costume-cell" data-id="rare_036">
    <rect x="6" y="2526" width="268" height="348" rx="8" fill="#222329" stroke="#5b5d67" />
    <text x="16" y="2548" class="label">WORN · rare_036</text>
    <rect x="52" y="2560" width="176" height="208" fill="url(#checker)" stroke="#777" />
    <svg x="92" y="2578" width="96" height="104" viewBox="0 0 96 104" overflow="hidden">
      <image href="../../../../images/characters/gamjabot/references/base-spritesheet-extended.png" x="0" y="0" width="768" height="1144" />
    </svg>
    <image href="../../../rare/rare_036.png" x="84" y="2570" width="112" height="112" preserveAspectRatio="xMidYMid meet" />
    <text x="16" y="2796" class="name">설산 등반가 세트</text>
    <text x="16" y="2820" class="meta">full · x -8 · y -8 · size 112</text>
    <text x="16" y="2842" class="warning">none</text>
    <text x="16" y="2860" class="observation">설산 등반가 세트 원본에 서로 독립 장착 가능한 설산 등반가 모자·설산 등반가 목도리이</text>
  </g>
  <g class="costume-cell" data-id="rare_037">
    <rect x="286" y="2526" width="268" height="348" rx="8" fill="#222329" stroke="#5b5d67" />
    <text x="296" y="2548" class="label">WORN · rare_037</text>
    <rect x="332" y="2560" width="176" height="208" fill="url(#checker)" stroke="#777" />
    <svg x="372" y="2578" width="96" height="104" viewBox="0 0 96 104" overflow="hidden">
      <image href="../../../../images/characters/gamjabot/references/base-spritesheet-extended.png" x="0" y="0" width="768" height="1144" />
    </svg>
    <image href="../../../rare/rare_037.png" x="368" y="2570" width="104" height="104" preserveAspectRatio="xMidYMid meet" />
    <text x="296" y="2796" class="name">너구리 도둑 가면</text>
    <text x="296" y="2820" class="meta">face · x -4 · y -8 · size 104</text>
    <text x="296" y="2842" class="warning">none</text>
    <text x="296" y="2860" class="observation">너구리 도둑 가면의 단일 얼굴 장식 실루엣 전체가 캔버스 여백 안에 들어오며, 잘린 중</text>
  </g>
  <g class="costume-cell" data-id="rare_038">
    <rect x="566" y="2526" width="268" height="348" rx="8" fill="#222329" stroke="#5b5d67" />
    <text x="576" y="2548" class="label">WORN · rare_038</text>
    <rect x="612" y="2560" width="176" height="208" fill="url(#checker)" stroke="#777" />
    <svg x="652" y="2578" width="96" height="104" viewBox="0 0 96 104" overflow="hidden">
      <image href="../../../../images/characters/gamjabot/references/base-spritesheet-extended.png" x="0" y="0" width="768" height="1144" />
    </svg>
    <image href="../../../rare/rare_038.png" x="648" y="2538" width="100" height="100" preserveAspectRatio="xMidYMid meet" />
    <text x="576" y="2796" class="name">축제 북 머리띠와 띠</text>
    <text x="576" y="2820" class="meta">head · x -4 · y -40 · size 100</text>
    <text x="576" y="2842" class="warning">none</text>
    <text x="576" y="2860" class="observation">빨강·흰색 꼬임 끈과 매듭이 하나로 연결된 축제 머리띠 한 개이며 별도 허리띠 그림은 </text>
  </g>
  <g class="costume-cell" data-id="rare_039">
    <rect x="846" y="2526" width="268" height="348" rx="8" fill="#222329" stroke="#5b5d67" />
    <text x="856" y="2548" class="label">WORN · rare_039</text>
    <rect x="892" y="2560" width="176" height="208" fill="url(#checker)" stroke="#777" />
    <svg x="932" y="2578" width="96" height="104" viewBox="0 0 96 104" overflow="hidden">
      <image href="../../../../images/characters/gamjabot/references/base-spritesheet-extended.png" x="0" y="0" width="768" height="1144" />
    </svg>
    <image href="../../../rare/rare_039.png" x="928" y="2548" width="104" height="104" preserveAspectRatio="xMidYMid meet" />
    <text x="856" y="2796" class="name">붉은 사무라이 투구</text>
    <text x="856" y="2820" class="meta">head · x -4 · y -30 · size 104</text>
    <text x="856" y="2842" class="warning">none</text>
    <text x="856" y="2860" class="observation">붉은 사무라이 투구의 단일 머리 장식 실루엣 전체가 캔버스 여백 안에 들어오며, 잘린 </text>
  </g>
  <g class="costume-cell" data-id="rare_040">
    <rect x="1126" y="2526" width="268" height="348" rx="8" fill="#222329" stroke="#5b5d67" />
    <text x="1136" y="2548" class="label">WORN · rare_040</text>
    <rect x="1172" y="2560" width="176" height="208" fill="url(#checker)" stroke="#777" />
    <svg x="1212" y="2578" width="96" height="104" viewBox="0 0 96 104" overflow="hidden">
      <image href="../../../../images/characters/gamjabot/references/base-spritesheet-extended.png" x="0" y="0" width="768" height="1144" />
    </svg>
    <image href="../../../rare/rare_040.png" x="1208" y="2548" width="104" height="104" preserveAspectRatio="xMidYMid meet" />
    <text x="1136" y="2796" class="name">심해 스쿠버 돔</text>
    <text x="1136" y="2820" class="meta">head · x -4 · y -30 · size 104</text>
    <text x="1136" y="2842" class="warning">none</text>
    <text x="1136" y="2860" class="observation">심해 스쿠버 돔의 단일 머리 장식 실루엣 전체가 캔버스 여백 안에 들어오며, 잘린 중복</text>
  </g>
  <g class="costume-cell" data-id="rare_041">
    <rect x="6" y="2886" width="268" height="348" rx="8" fill="#222329" stroke="#5b5d67" />
    <text x="16" y="2908" class="label">WORN · rare_041</text>
    <rect x="52" y="2920" width="176" height="208" fill="url(#checker)" stroke="#777" />
    <svg x="92" y="2938" width="96" height="104" viewBox="0 0 96 104" overflow="hidden">
      <image href="../../../../images/characters/gamjabot/references/base-spritesheet-extended.png" x="0" y="0" width="768" height="1144" />
    </svg>
    <image href="../../../rare/rare_041.png" x="88" y="2908" width="104" height="104" preserveAspectRatio="xMidYMid meet" />
    <text x="16" y="3156" class="name">번개 록스타 헤어</text>
    <text x="16" y="3180" class="meta">head · x -4 · y -30 · size 104</text>
    <text x="16" y="3202" class="warning">none</text>
    <text x="16" y="3220" class="observation">번개 록스타 헤어의 단일 머리 장식 실루엣 전체가 캔버스 여백 안에 들어오며, 잘린 중</text>
  </g>
  <g class="costume-cell" data-id="rare_042">
    <rect x="286" y="2886" width="268" height="348" rx="8" fill="#222329" stroke="#5b5d67" />
    <text x="296" y="2908" class="label">WORN · rare_042</text>
    <rect x="332" y="2920" width="176" height="208" fill="url(#checker)" stroke="#777" />
    <svg x="372" y="2938" width="96" height="104" viewBox="0 0 96 104" overflow="hidden">
      <image href="../../../../images/characters/gamjabot/references/base-spritesheet-extended.png" x="0" y="0" width="768" height="1144" />
    </svg>
    <image href="../../../rare/rare_042.png" x="364" y="2930" width="112" height="112" preserveAspectRatio="xMidYMid meet" />
    <text x="296" y="3156" class="name">괴짜 과학자 세트</text>
    <text x="296" y="3180" class="meta">full · x -8 · y -8 · size 112</text>
    <text x="296" y="3202" class="warning">none</text>
    <text x="296" y="3220" class="observation">괴짜 과학자 세트 원본에 서로 독립 장착 가능한 괴짜 과학자 헤어·괴짜 과학자 고글이(</text>
  </g>
  <g class="costume-cell" data-id="rare_043">
    <rect x="566" y="2886" width="268" height="348" rx="8" fill="#222329" stroke="#5b5d67" />
    <text x="576" y="2908" class="label">WORN · rare_043</text>
    <rect x="612" y="2920" width="176" height="208" fill="url(#checker)" stroke="#777" />
    <svg x="652" y="2938" width="96" height="104" viewBox="0 0 96 104" overflow="hidden">
      <image href="../../../../images/characters/gamjabot/references/base-spritesheet-extended.png" x="0" y="0" width="768" height="1144" />
    </svg>
    <image href="../../../rare/rare_043.png" x="648" y="2888" width="104" height="104" preserveAspectRatio="xMidYMid meet" />
    <text x="576" y="3156" class="name">북방 바이킹 세트</text>
    <text x="576" y="3180" class="meta">head · x -4 · y -50 · size 104</text>
    <text x="576" y="3202" class="warning">none</text>
    <text x="576" y="3220" class="observation">이름에는 세트가 들어가지만 원본은 뿔과 금속 띠가 결합된 바이킹 투구 한 개이며 외곽선</text>
  </g>
  <g class="costume-cell" data-id="rare_044">
    <rect x="846" y="2886" width="268" height="348" rx="8" fill="#222329" stroke="#5b5d67" />
    <text x="856" y="2908" class="label">WORN · rare_044</text>
    <rect x="892" y="2920" width="176" height="208" fill="url(#checker)" stroke="#777" />
    <svg x="932" y="2938" width="96" height="104" viewBox="0 0 96 104" overflow="hidden">
      <image href="../../../../images/characters/gamjabot/references/base-spritesheet-extended.png" x="0" y="0" width="768" height="1144" />
    </svg>
    <image href="../../../rare/rare_044.png" x="928" y="2908" width="104" height="104" preserveAspectRatio="xMidYMid meet" />
    <text x="856" y="3156" class="name">파스텔 요정 후드</text>
    <text x="856" y="3180" class="meta">head · x -4 · y -30 · size 104</text>
    <text x="856" y="3202" class="warning">none</text>
    <text x="856" y="3220" class="observation">파스텔 요정 후드의 단일 머리 장식 실루엣 전체가 캔버스 여백 안에 들어오며, 잘린 중</text>
  </g>
  <g class="costume-cell" data-id="rare_045">
    <rect x="1126" y="2886" width="268" height="348" rx="8" fill="#222329" stroke="#5b5d67" />
    <text x="1136" y="2908" class="label">WORN · rare_045</text>
    <rect x="1172" y="2920" width="176" height="208" fill="url(#checker)" stroke="#777" />
    <svg x="1212" y="2938" width="96" height="104" viewBox="0 0 96 104" overflow="hidden">
      <image href="../../../../images/characters/gamjabot/references/base-spritesheet-extended.png" x="0" y="0" width="768" height="1144" />
    </svg>
    <image href="../../../rare/rare_045.png" x="1208" y="2930" width="104" height="104" preserveAspectRatio="xMidYMid meet" />
    <text x="1136" y="3156" class="name">코믹 히어로 가면</text>
    <text x="1136" y="3180" class="meta">face · x -4 · y -8 · size 104</text>
    <text x="1136" y="3202" class="warning">none</text>
    <text x="1136" y="3220" class="observation">코믹 히어로 가면의 단일 얼굴 장식 실루엣 전체가 캔버스 여백 안에 들어오며, 잘린 중</text>
  </g>
  <g class="costume-cell" data-id="rare_046">
    <rect x="6" y="3246" width="268" height="348" rx="8" fill="#222329" stroke="#5b5d67" />
    <text x="16" y="3268" class="label">WORN · rare_046</text>
    <rect x="52" y="3280" width="176" height="208" fill="url(#checker)" stroke="#777" />
    <svg x="92" y="3298" width="96" height="104" viewBox="0 0 96 104" overflow="hidden">
      <image href="../../../../images/characters/gamjabot/references/base-spritesheet-extended.png" x="0" y="0" width="768" height="1144" />
    </svg>
    <image href="../../../rare/rare_046.png" x="84" y="3290" width="112" height="112" preserveAspectRatio="xMidYMid meet" />
    <text x="16" y="3516" class="name">빈티지 사립탐정 세트</text>
    <text x="16" y="3540" class="meta">full · x -8 · y -8 · size 112</text>
    <text x="16" y="3562" class="warning">none</text>
    <text x="16" y="3580" class="observation">빈티지 사립탐정 세트 원본에 서로 독립 장착 가능한 빈티지 사립탐정 모자·빈티지 사립탐</text>
  </g>
  <g class="costume-cell" data-id="rare_047">
    <rect x="286" y="3246" width="268" height="348" rx="8" fill="#222329" stroke="#5b5d67" />
    <text x="296" y="3268" class="label">WORN · rare_047</text>
    <rect x="332" y="3280" width="176" height="208" fill="url(#checker)" stroke="#777" />
    <svg x="372" y="3298" width="96" height="104" viewBox="0 0 96 104" overflow="hidden">
      <image href="../../../../images/characters/gamjabot/references/base-spritesheet-extended.png" x="0" y="0" width="768" height="1144" />
    </svg>
    <image href="../../../rare/rare_047.png" x="364" y="3290" width="112" height="112" preserveAspectRatio="xMidYMid meet" />
    <text x="296" y="3516" class="name">하늘 조종사 세트</text>
    <text x="296" y="3540" class="meta">full · x -8 · y -8 · size 112</text>
    <text x="296" y="3562" class="warning">none</text>
    <text x="296" y="3580" class="observation">하늘 조종사 세트 원본에 서로 독립 장착 가능한 하늘 조종사 모자·하늘 조종사 고글이(</text>
  </g>
  <g class="costume-cell" data-id="rare_048">
    <rect x="566" y="3246" width="268" height="348" rx="8" fill="#222329" stroke="#5b5d67" />
    <text x="576" y="3268" class="label">WORN · rare_048</text>
    <rect x="612" y="3280" width="176" height="208" fill="url(#checker)" stroke="#777" />
    <svg x="652" y="3298" width="96" height="104" viewBox="0 0 96 104" overflow="hidden">
      <image href="../../../../images/characters/gamjabot/references/base-spritesheet-extended.png" x="0" y="0" width="768" height="1144" />
    </svg>
    <image href="../../../rare/rare_048.png" x="648" y="3260" width="104" height="104" preserveAspectRatio="xMidYMid meet" />
    <text x="576" y="3516" class="name">왕실 벨벳 모자</text>
    <text x="576" y="3540" class="meta">head · x -4 · y -38 · size 104</text>
    <text x="576" y="3562" class="warning">none</text>
    <text x="576" y="3580" class="observation">왕실 벨벳 모자의 단일 머리 장식 실루엣 전체가 캔버스 여백 안에 들어오며, 잘린 중복</text>
  </g>
</svg>
